<svg width="167" height="49" viewBox="0 0 167 49" fill="none" xmlns="http://www.w3.org/2000/svg">
<path fill-rule="evenodd" clip-rule="evenodd" d="M23.4989 27.2602C22.7019 27.695 22.6008 27.7604 22.1511 27.7604C21.9545 27.7604 21.5989 27.5472 21.2164 27.28C21.2164 27.28 20.9635 27.1092 20.2325 26.6259C19.7491 26.3102 19.5922 26.1106 19.1694 26.1106C18.7389 26.1106 18.5133 26.2752 16.6591 27.28C15.4238 27.947 15.7358 28.1573 16.3804 28.5864C18.2314 29.8104 17.1923 29.122 19.7458 30.8316C20.551 31.3734 21.0279 31.7698 21.4677 31.7698C21.9064 31.7698 22.7084 31.37 25.2979 29.9723C32.3705 26.1529 38.5055 22.8432 43.8609 19.9523L44.5541 15.8848L23.4989 27.2602Z" fill="#4A176D"/>
<path fill-rule="evenodd" clip-rule="evenodd" d="M20.5199 44.1141C19.2827 44.7724 19.2032 44.6407 18.3114 44.0505C15.7111 42.3412 6.93317 36.6063 5.01997 35.3264C4.5343 35.0001 3.93462 34.7306 3.63582 34.7425C3.2386 34.7544 3.10453 34.8838 2.08925 35.4302C-0.132199 36.6163 0.0208567 36.6231 0.536024 36.9539C1.03171 37.2649 14.256 45.9623 17.4502 48.0574C17.8585 48.3293 18.1895 48.4916 18.5884 48.4916C19.0012 48.4916 19.6137 48.3293 20.1466 48.0411C28.3446 43.6618 35.3463 39.9283 41.3856 36.7026L42.091 32.6072C35.9726 35.8718 28.8653 39.6677 20.5203 44.1153L20.5199 44.1141Z" fill="#4A176D"/>
<path fill-rule="evenodd" clip-rule="evenodd" d="M21.2039 35.6659C20.4898 36.0441 20.3399 36.0978 19.882 36.0978C19.6191 36.0978 19.1332 35.7686 18.5197 35.3712C16.3613 33.9864 12.7885 31.7734 12.5363 31.6024C12.5363 31.6024 12.3076 31.4499 11.6891 31.0457C11.1947 30.7239 10.8414 30.4445 10.4049 30.4445C9.95714 30.4445 9.95098 30.4609 9.01902 30.9514C6.68032 32.1736 6.53712 32.2685 6.98479 32.5575C9.79087 34.3776 12.5661 36.1784 17.789 39.5273C18.7305 40.1308 18.7552 40.1308 19.1553 40.1308C19.5845 40.1308 19.7721 40.1257 20.4681 39.7576C28.873 35.3334 36.0323 31.5595 42.1981 28.3172L42.9121 24.2463C36.7539 27.4845 29.5977 31.2505 21.2043 35.6667L21.2039 35.6659Z" fill="#4A176D"/>
<path fill-rule="evenodd" clip-rule="evenodd" d="M23.4218 19.9065C23.6157 19.9065 23.9722 20.1212 24.3588 20.3896C24.3588 20.3896 24.6107 20.5603 25.3457 21.0406C25.8298 21.3599 25.9903 21.5588 26.4076 21.5588C26.8407 21.5588 27.0686 21.395 28.9267 20.3896C30.1649 19.7178 29.8539 19.5087 29.2071 19.0815C27.3511 17.8535 28.3906 18.5474 25.8348 16.8273C25.0231 16.2893 24.55 15.8853 24.1069 15.8853C23.6672 15.8853 22.8632 16.2893 20.2675 17.6873C13.2073 21.4972 7.08199 24.807 1.73325 27.6956L1.035 31.77L22.0695 20.4057C22.8718 19.9723 22.9744 19.9065 23.4218 19.9065Z" fill="#00B0AD"/>
<path fill-rule="evenodd" clip-rule="evenodd" d="M27.2457 4.4471C29.8465 6.16425 38.6453 11.915 40.5626 13.1938C41.0491 13.5239 41.6482 13.7924 41.9468 13.7855C42.3453 13.7753 42.4785 13.6399 43.4995 13.0954C45.7214 11.9022 45.5698 11.8988 45.052 11.5688C44.5572 11.2553 31.3082 2.53364 28.11 0.430153C27.7015 0.163296 27.3705 0 26.967 0C26.5524 0 25.9433 0.163296 25.4077 0.446648C17.2262 4.82041 10.2368 8.55469 4.20649 11.7767L3.49817 15.8848C9.61055 12.6234 16.7066 8.83109 25.0352 4.38667C26.2696 3.72377 26.3496 3.85877 27.2457 4.4471Z" fill="#00B0AD"/>
<path fill-rule="evenodd" clip-rule="evenodd" d="M24.8596 11.5636C25.1201 11.5636 25.6081 11.8952 26.2233 12.289C28.3867 13.6805 31.9662 15.8968 32.2166 16.0694C32.2166 16.0694 32.4457 16.225 33.0726 16.6296C33.5622 16.951 33.9134 17.2345 34.3502 17.2345C34.7988 17.2345 34.8089 17.213 35.7454 16.7224C38.0817 15.4957 38.2314 15.4029 37.785 15.1143C34.967 13.2878 32.1874 11.4873 26.952 8.12561C26.0138 7.52466 25.9874 7.52466 25.5866 7.52466C25.1561 7.52466 24.9681 7.53034 24.2708 7.89812C15.8839 12.3128 8.73362 16.0824 2.5728 19.3302L1.85577 23.4099C8.01069 20.1671 15.1587 16.4082 23.5324 11.9987C24.2494 11.6191 24.3964 11.5636 24.8596 11.5636Z" fill="#00B0AD"/>
<path fill-rule="evenodd" clip-rule="evenodd" d="M60.212 12.1066H54.3299L55.6358 4.17969H51.582L48.7135 21.7324L52.7707 21.7369L53.7476 15.7923H59.6329L58.6505 21.7291H62.5759L65.4344 4.17969H61.5162L60.212 12.1066Z" fill="#00B0AD"/>
<path fill-rule="evenodd" clip-rule="evenodd" d="M66.6178 8.99976L70.0508 11.0925L65.8783 13.3471L64.5987 20.9008H68.7255L71.287 5.85205H67.1546L66.6178 8.99976Z" fill="#00B0AD"/>
<path fill-rule="evenodd" clip-rule="evenodd" d="M80.9727 10.1962C80.2648 9.39257 78.9593 8.73962 77.3763 8.73962C76.0681 8.73962 75.3777 9.14168 75.3423 9.14168L75.0009 11.3172C75.0075 11.3172 75.6902 11.1387 76.2464 11.2002C78.7608 11.4813 78.456 14.265 78.317 15.1392C78.0476 16.8298 77.1162 18.5915 75.3794 19.2232C74.2479 19.6415 73.588 19.4399 73.588 19.4399L75.7262 5.85586L72.0546 5.85193L69.6149 21.3622C69.623 21.3488 72.3807 21.7464 74.4033 21.7363C76.4034 21.7279 78.2346 21.1606 79.6666 19.8906C80.9432 18.7533 81.7164 17.0559 82.0458 14.9241C82.1254 14.3893 82.1655 13.8808 82.1533 13.4053C82.1113 12.0418 81.7296 11.0546 80.9727 10.1962Z" fill="#00B0AD"/>
<path fill-rule="evenodd" clip-rule="evenodd" d="M85.4831 10.2238C84.7967 10.8463 84.5593 12.4251 84.3545 13.6813L82.9934 21.7372H86.8526L88.2814 13.5352C88.4478 12.5135 88.9853 12.0225 89.8063 12.0225H91.1473L92.1899 9.19653C88.0648 9.19653 86.3911 9.3986 85.4831 10.2238Z" fill="#00B0AD"/>
<path fill-rule="evenodd" clip-rule="evenodd" d="M109.377 11.6376L109.745 9.08429H107.921L108.377 5.85181L104.955 7.01575L104.655 9.08429H103.42L103.057 11.6376H104.287L103.595 16.4127C103.49 17.087 103.395 17.7752 103.313 18.4623C103.121 19.9235 103.734 20.7367 104.003 21.0177C104.474 21.5275 105.061 21.7366 106.027 21.7366L106.129 21.7327C107.153 21.7193 107.792 21.4205 107.976 21.2938L108.326 18.9118C108.144 18.9693 107.823 19.039 107.436 19.039C106.921 19.039 106.636 18.7278 106.622 18.1371C106.622 18.0183 106.641 17.8684 106.664 17.6949L107.558 11.6376H109.377Z" fill="#00B0AD"/>
<path fill-rule="evenodd" clip-rule="evenodd" d="M125.78 13.685L125.787 13.6508C125.91 13.6508 126.726 13.3275 127.6 12.5207C128.477 11.7062 128.799 11.1863 128.953 9.99208C129.104 8.73701 128.469 7.28856 127.378 6.63335C126.005 5.82214 125.056 5.85207 123.297 5.85207L116.483 5.85583L113.926 20.9005L117.923 20.8972L120.091 8.14417H122.597C124.104 8.14417 124.968 8.88031 124.908 10.1158C124.852 11.1378 124.324 11.6143 123.808 11.9414C123.252 12.3048 122.672 12.4988 121.203 12.5005L119.483 12.5021L119.113 14.6715H120.633C123.37 14.7443 123.892 15.9657 123.646 16.8812C123.378 17.8819 122.464 18.5416 119.914 18.6257H118.442L118.055 20.8968H121.378C122.581 20.8968 124.515 20.8718 125.592 20.3714C127.614 19.4293 128.074 18.0417 128.207 16.9958C128.286 16.378 128.223 15.0551 127.361 14.3738C126.528 13.7163 125.78 13.685 125.78 13.685Z" fill="#00B0AD"/>
<path fill-rule="evenodd" clip-rule="evenodd" d="M147.668 10.0323C145.673 10.0323 143.908 10.3513 142.41 10.9721L140.68 21.7371L144.28 21.7339L145.781 12.5315L145.902 12.5004C146.313 12.3922 146.768 12.3326 147.221 12.3326C148.186 12.3326 148.69 12.7245 148.717 13.5056C148.717 13.6327 148.706 13.7629 148.676 13.9034L147.398 21.7251L151.039 21.7229L152.327 13.8846C152.373 13.5909 152.39 13.3045 152.384 13.0333C152.331 11.0128 150.785 10.0323 147.668 10.0323Z" fill="#00B0AD"/>
<path fill-rule="evenodd" clip-rule="evenodd" d="M156.455 5.8554L154.053 20.9008H157.663L158.613 15.1229L161.092 20.9008L165.326 20.9003L162.142 14.4127L166.594 9.02058H162.748L158.757 14.1497L160.07 5.85205L156.455 5.8554Z" fill="#00B0AD"/>
<path fill-rule="evenodd" clip-rule="evenodd" d="M96.6109 19.1845C95.1311 19.0365 93.8662 17.7734 94.0392 15.9726C94.3034 13.1629 95.4346 12.3248 95.8267 11.9373C96.2748 11.4955 96.8291 11.2723 97.4829 11.2723C98.4686 11.2723 98.9451 11.8878 98.8975 13.0971C98.8883 13.4072 98.839 13.7436 98.7704 14.1038L98.7311 14.266H94.831C94.831 14.266 94.642 14.7699 94.5183 15.3413C94.4012 15.8785 94.3962 16.1538 94.3962 16.1538L101.834 16.1822C102.055 15.3294 102.187 14.5179 102.212 13.7642C102.269 12.3465 101.966 11.2353 101.32 10.4527C100.631 9.61736 99.5764 9.19617 98.196 9.19617C96.3718 9.19617 94.7649 9.74143 93.4239 10.8244C92.0762 11.9063 91.1775 13.3702 90.7402 15.1786C90.6106 15.7141 90.5379 16.2322 90.5178 16.7068C90.4668 18.0836 90.9877 19.4637 91.8889 20.3061C92.8044 21.1605 93.9372 21.7368 95.5959 21.7368C97.258 21.7368 99.3222 21.2666 101.312 19.8L99.8765 18.2158C98.334 19.1812 97.3901 19.2656 96.6109 19.1845Z" fill="#00B0AD"/>
<path fill-rule="evenodd" clip-rule="evenodd" d="M135.654 9.1963C134.641 9.19471 133.427 9.35716 132.109 9.67201L131.734 11.9269C133.053 11.4725 133.994 11.3872 134.605 11.3872C135.907 11.3883 136.44 11.716 136.449 12.4425C136.449 12.5586 136.249 13.7578 136.231 13.8701C135.999 15.2711 135.395 18.9402 135.395 18.9402C135.368 19.0963 135.17 19.1001 134.107 19.0985C133.378 19.0963 132.83 18.8982 132.528 18.5237C132.295 18.235 132.214 17.8445 132.283 17.3955C132.405 16.6353 132.803 16.0648 133.467 15.6909C134.1 15.3324 134.937 15.2812 135.867 15.2668L136.209 13.2618C136.061 13.2533 135.646 13.2432 135.507 13.2432C133.944 13.2432 132.475 13.608 131.339 14.2883C130.932 14.5334 130.567 14.8173 130.258 15.1401C129.395 16.0408 128.942 17.1973 128.977 18.4049C129.009 19.4287 129.588 20.0349 130.32 20.3919C131.207 20.8228 132.316 20.8995 132.967 20.8995C133.283 20.8995 133.533 20.9027 133.546 20.8995H138.379L139.054 16.9853C139.054 16.9853 139.718 12.76 139.794 12.2913C140.148 10.079 138.591 9.20274 135.654 9.1963Z" fill="#00B0AD"/>
<path d="M55.8036 25.2932C57.4316 25.2932 58.8542 25.6158 60.0716 26.2612C61.2889 26.9065 62.2276 27.8158 62.8876 28.9892C63.5622 30.1478 63.8996 31.4898 63.8996 33.0152C63.8996 34.5258 63.5622 35.8678 62.8876 37.0412C62.2276 38.2145 61.2816 39.1238 60.0496 39.7692C58.8322 40.4145 57.4169 40.7372 55.8036 40.7372H50.0176V25.2932H55.8036ZM55.5616 37.4812C56.9842 37.4812 58.0916 37.0925 58.8836 36.3152C59.6756 35.5378 60.0716 34.4378 60.0716 33.0152C60.0716 31.5925 59.6756 30.4852 58.8836 29.6932C58.0916 28.9012 56.9842 28.5052 55.5616 28.5052H53.7796V37.4812H55.5616ZM83.4919 25.2932V40.7372H79.7299V31.4752L76.2759 40.7372H73.2399L69.7639 31.4532V40.7372H66.0019V25.2932H70.4459L74.7799 35.9852L79.0699 25.2932H83.4919ZM91.7853 40.8912C90.6559 40.8912 89.6439 40.7078 88.7493 40.3412C87.8546 39.9745 87.1359 39.4318 86.5933 38.7132C86.0653 37.9945 85.7866 37.1292 85.7573 36.1172H89.7613C89.8199 36.6892 90.0179 37.1292 90.3553 37.4372C90.6926 37.7305 91.1326 37.8772 91.6753 37.8772C92.2326 37.8772 92.6726 37.7525 92.9953 37.5032C93.3179 37.2392 93.4793 36.8798 93.4793 36.4252C93.4793 36.0438 93.3473 35.7285 93.0833 35.4792C92.8339 35.2298 92.5186 35.0245 92.1373 34.8632C91.7706 34.7018 91.2426 34.5185 90.5533 34.3132C89.5559 34.0052 88.7419 33.6972 88.1113 33.3892C87.4806 33.0812 86.9379 32.6265 86.4833 32.0252C86.0286 31.4238 85.8013 30.6392 85.8013 29.6712C85.8013 28.2338 86.3219 27.1118 87.3633 26.3052C88.4046 25.4838 89.7613 25.0732 91.4333 25.0732C93.1346 25.0732 94.5059 25.4838 95.5473 26.3052C96.5886 27.1118 97.1459 28.2412 97.2193 29.6932H93.1493C93.1199 29.1945 92.9366 28.8058 92.5993 28.5272C92.2619 28.2338 91.8293 28.0872 91.3013 28.0872C90.8466 28.0872 90.4799 28.2118 90.2013 28.4612C89.9226 28.6958 89.7833 29.0405 89.7833 29.4952C89.7833 29.9938 90.0179 30.3825 90.4873 30.6612C90.9566 30.9398 91.6899 31.2405 92.6873 31.5632C93.6846 31.9005 94.4913 32.2232 95.1073 32.5312C95.7379 32.8392 96.2806 33.2865 96.7353 33.8732C97.1899 34.4598 97.4173 35.2152 97.4173 36.1392C97.4173 37.0192 97.1899 37.8185 96.7353 38.5372C96.2953 39.2558 95.6499 39.8278 94.7993 40.2532C93.9486 40.6785 92.9439 40.8912 91.7853 40.8912Z" fill="#4A176D"/>
</svg>
