<svg width="301" height="300" viewBox="0 0 301 300" fill="none" xmlns="http://www.w3.org/2000/svg">
<path fill-rule="evenodd" clip-rule="evenodd" d="M268.349 185.026C271.564 180.487 278.691 182.397 279.206 187.935L279.919 195.615C280 196.484 280.456 197.275 281.169 197.78L287.463 202.237C292.002 205.452 290.093 212.579 284.554 213.093L276.875 213.807L276.597 210.82L284.277 210.106C287.042 209.849 287.996 206.291 285.729 204.685L279.435 200.228C278.008 199.217 277.094 197.633 276.932 195.892L276.219 188.213C275.962 185.447 272.403 184.493 270.798 186.76L266.34 193.054C265.33 194.481 263.746 195.396 262.004 195.557L254.325 196.271C251.559 196.527 250.606 200.086 252.872 201.692L259.166 206.149C260.594 207.16 261.508 208.743 261.67 210.485L262.383 218.164C262.64 220.93 266.199 221.884 267.804 219.617L270.252 221.351C267.037 225.89 259.91 223.98 259.396 218.442L258.683 210.762C258.602 209.893 258.145 209.102 257.433 208.597L251.139 204.14C246.599 200.925 248.509 193.798 254.047 193.283L261.727 192.57C262.596 192.489 263.387 192.033 263.892 191.32L268.349 185.026Z" fill="#667085"/>
<path fill-rule="evenodd" clip-rule="evenodd" d="M30.5105 60.4244C29.4469 54.1983 36.7028 50.0091 41.563 54.0432L48.5702 59.8595C49.4245 60.5686 50.546 60.8691 51.6404 60.6821L60.617 59.1487C66.843 58.0852 71.0322 65.3411 66.9981 70.2012L61.1818 77.2085C60.4728 78.0628 60.1723 79.1842 60.3592 80.2786L61.8926 89.2552C62.9562 95.4813 55.7003 99.6704 50.8401 95.6363L43.8329 89.8201C42.9786 89.111 41.8571 88.8105 40.7628 88.9975L31.7862 90.5309C25.5601 91.5944 21.3709 84.3385 25.405 79.4784L31.2213 72.4711L33.5297 74.3872L27.7134 81.3944C25.458 84.1116 27.8001 88.1683 31.281 87.5737L40.2576 86.0403C42.2151 85.7059 44.2209 86.2434 45.7489 87.5117L52.7562 93.3279C55.4734 95.5833 59.5301 93.2412 58.9355 89.7603L57.4021 80.7837C57.0677 78.8263 57.6051 76.8204 58.8734 75.2924L64.6897 68.2852C66.9451 65.5679 64.603 61.5113 61.1221 62.1059L52.1455 63.6393C50.1881 63.9737 48.1822 63.4362 46.6542 62.1679L39.6469 56.3516C36.9297 54.0962 32.873 56.4384 33.4677 59.9192L30.5105 60.4244Z" fill="#667085"/>
<path d="M29.133 61.8142C28.6641 59.069 31.8633 57.222 34.0062 59.0007L45.6577 68.6717C46.3314 69.2309 47.2158 69.4679 48.0789 69.3205L63.0049 66.7708C65.75 66.3019 67.5971 69.5011 65.8184 71.644L56.1473 83.2954C55.5881 83.9692 55.3511 84.8536 55.4986 85.7167L58.0483 100.643C58.5172 103.388 55.3179 105.235 53.175 103.456L41.5236 93.7851C40.8499 93.2259 39.9655 92.9889 39.1024 93.1363L24.1764 95.686C21.4313 96.155 19.5842 92.9557 21.3629 90.8128L31.034 79.1614C31.5932 78.4877 31.8302 77.6032 31.6827 76.7402L29.133 61.8142Z" fill="url(#paint0_linear_163_3943)"/>
<path d="M264.761 191.738C267.103 188.857 271.766 190.445 271.863 194.157L272.059 201.663C272.089 202.83 272.628 203.926 273.534 204.662L279.36 209.399C282.241 211.742 280.653 216.405 276.941 216.502L269.435 216.698C268.267 216.728 267.172 217.267 266.436 218.173L261.698 223.999C259.356 226.88 254.693 225.291 254.596 221.579L254.4 214.073C254.37 212.906 253.831 211.811 252.925 211.074L247.099 206.337C244.218 203.994 245.806 199.332 249.518 199.235L257.024 199.039C258.191 199.008 259.287 198.47 260.023 197.564L264.761 191.738Z" fill="url(#paint1_linear_163_3943)"/>
<rect x="30.9111" y="256.299" width="240" height="2.5" rx="1.25" fill="#667085"/>
<path fill-rule="evenodd" clip-rule="evenodd" d="M111.094 106.648C114.986 103.325 119.936 101.5 125.053 101.5H175.671C180.788 101.5 185.738 103.325 189.63 106.648L220.336 132.859L218.388 135.141L187.682 108.929C184.333 106.071 180.074 104.5 175.671 104.5H125.053C120.65 104.5 116.391 106.071 113.042 108.929L82.3359 135.141L80.3882 132.859L111.094 106.648Z" fill="#667085"/>
<path fill-rule="evenodd" clip-rule="evenodd" d="M146.789 39.3206C147.44 39.8324 147.553 40.7754 147.041 41.4268C146.271 42.4068 145.506 43.5852 144.868 44.9326C144.513 45.6813 143.619 46.0007 142.87 45.6461C142.121 45.2914 141.802 44.397 142.157 43.6483C142.901 42.077 143.79 40.7096 144.682 39.5733C145.194 38.9219 146.137 38.8088 146.789 39.3206ZM141.699 51.4705C142.526 51.4213 143.236 52.0519 143.285 52.8788C143.427 55.2596 144.117 57.8959 145.667 60.7367C146.064 61.464 145.796 62.3751 145.068 62.7718C144.341 63.1685 143.43 62.9006 143.033 62.1733C141.283 58.9644 140.46 55.9006 140.291 53.0569C140.242 52.2299 140.872 51.5197 141.699 51.4705ZM148.684 67.4919C149.278 66.9144 150.228 66.9278 150.805 67.5217C152.592 69.359 154.76 71.2525 157.373 73.1874C158.038 73.6804 158.178 74.6198 157.685 75.2855C157.192 75.9513 156.253 76.0914 155.587 75.5984C152.861 73.5794 150.568 71.5807 148.654 69.613C148.077 69.0191 148.09 68.0694 148.684 67.4919ZM162.654 78.5389C163.074 77.8251 163.994 77.5874 164.708 78.0078C165.93 78.728 167.217 79.4517 168.571 80.1783C170.235 81.0712 171.807 81.9899 173.289 82.931C173.988 83.3753 174.195 84.3023 173.75 85.0015C173.306 85.7007 172.379 85.9074 171.68 85.4632C170.264 84.5634 168.755 83.6817 167.153 82.8218C165.765 82.0772 164.443 81.334 163.185 80.5927C162.471 80.1722 162.233 79.2527 162.654 78.5389ZM127.596 83.3174C131.204 83.0594 135.036 83.6304 138.984 85.21C139.753 85.5177 140.127 86.3907 139.819 87.1598C139.512 87.929 138.639 88.3031 137.87 87.9954C134.32 86.5753 130.941 86.0859 127.81 86.3098C126.984 86.3689 126.266 85.747 126.207 84.9206C126.148 84.0943 126.77 83.3765 127.596 83.3174ZM118.651 87.4573C119.094 88.1573 118.886 89.0839 118.186 89.5269C115.302 91.3518 112.809 93.8451 110.843 96.7487C110.379 97.4347 109.446 97.6144 108.76 97.15C108.074 96.6856 107.894 95.753 108.359 95.067C110.534 91.8533 113.318 89.0573 116.581 86.992C117.281 86.549 118.208 86.7573 118.651 87.4573ZM179.814 89.6559C180.386 89.0565 181.335 89.0343 181.935 89.6063C184.874 92.4111 187.156 95.3379 188.784 98.3197C189.181 99.0469 188.913 99.9581 188.186 100.355C187.458 100.752 186.547 100.484 186.15 99.757C184.692 97.0848 182.612 94.3994 179.863 91.7766C179.264 91.2047 179.242 90.2552 179.814 89.6559ZM146.632 91.3308C147.156 90.6895 148.101 90.5946 148.742 91.1189C150.136 92.258 151.533 93.5315 152.929 94.9464C154.082 96.1141 155.151 97.3031 156.138 98.5114C156.662 99.153 156.567 100.098 155.925 100.622C155.283 101.146 154.338 101.051 153.814 100.409C152.888 99.2757 151.883 98.1567 150.795 97.0542C149.468 95.7102 148.149 94.5091 146.844 93.4416C146.202 92.9172 146.107 91.9722 146.632 91.3308ZM105.583 104.469C106.391 104.652 106.898 105.455 106.715 106.263C105.943 109.677 105.841 113.193 106.517 116.541C106.681 117.353 106.155 118.145 105.343 118.309C104.531 118.473 103.74 117.947 103.576 117.135C102.808 113.332 102.933 109.387 103.789 105.601C103.972 104.793 104.775 104.286 105.583 104.469ZM159.382 105.881C160.12 105.506 161.023 105.8 161.399 106.538C162.894 109.478 163.994 112.49 164.742 115.546C164.938 116.351 164.446 117.163 163.641 117.36C162.836 117.557 162.024 117.064 161.828 116.259C161.133 113.422 160.113 110.628 158.725 107.898C158.349 107.16 158.643 106.257 159.382 105.881ZM190.283 107.693C191.111 107.679 191.793 108.34 191.807 109.168C191.869 112.996 190.857 116.699 188.852 120.105C188.431 120.818 187.512 121.056 186.798 120.636C186.084 120.216 185.846 119.296 186.267 118.582C188.006 115.629 188.86 112.466 188.807 109.217C188.794 108.389 189.454 107.706 190.283 107.693ZM164.446 123.597C165.274 123.577 165.961 124.233 165.981 125.061C166.056 128.232 165.816 131.416 165.311 134.585C165.181 135.403 164.413 135.961 163.594 135.831C162.776 135.7 162.219 134.932 162.349 134.114C162.827 131.106 163.052 128.104 162.982 125.132C162.962 124.304 163.618 123.617 164.446 123.597ZM108.757 125.5C109.394 124.97 110.34 125.057 110.87 125.694C112.866 128.094 115.548 130.22 119.028 131.884C119.775 132.242 120.091 133.137 119.734 133.885C119.376 134.632 118.481 134.948 117.733 134.591C113.891 132.753 110.854 130.368 108.563 127.612C108.033 126.975 108.12 126.029 108.757 125.5ZM181.576 126.221C182.072 126.885 181.935 127.825 181.271 128.32C178.547 130.351 175.328 132.142 171.645 133.641C170.877 133.953 170.002 133.585 169.69 132.817C169.378 132.05 169.746 131.175 170.514 130.862C173.992 129.447 176.983 127.775 179.477 125.915C180.141 125.42 181.081 125.557 181.576 126.221ZM162.359 135.026C162.534 135.836 162.019 136.634 161.209 136.809C157.879 137.527 154.299 138.058 150.477 138.378C149.652 138.447 148.926 137.834 148.857 137.008C148.788 136.183 149.401 135.457 150.227 135.388C153.929 135.078 157.382 134.565 160.577 133.876C161.387 133.701 162.185 134.216 162.359 135.026ZM127.406 136.159C127.539 135.341 128.309 134.786 129.127 134.919C130.796 135.19 132.571 135.387 134.454 135.503C136.248 135.613 138.002 135.683 139.715 135.713C140.543 135.728 141.203 136.412 141.188 137.24C141.173 138.068 140.489 138.728 139.661 138.713C137.904 138.682 136.107 138.61 134.27 138.497C132.293 138.376 130.42 138.168 128.646 137.88C127.828 137.747 127.273 136.976 127.406 136.159ZM162.134 141.95C162.925 142.197 163.366 143.038 163.119 143.828C162.186 146.817 161.056 149.774 159.771 152.675C159.435 153.433 158.549 153.775 157.792 153.439C157.034 153.104 156.692 152.218 157.028 151.46C158.271 148.652 159.36 145.803 160.255 142.935C160.502 142.144 161.343 141.703 162.134 141.95ZM154.967 159.062C155.69 159.466 155.949 160.38 155.544 161.103C154.006 163.855 152.355 166.535 150.632 169.122C150.173 169.812 149.242 169.999 148.552 169.54C147.863 169.08 147.676 168.149 148.135 167.46C149.819 164.931 151.429 162.318 152.926 159.639C153.33 158.916 154.244 158.657 154.967 159.062ZM144.88 174.655C145.537 175.161 145.659 176.103 145.154 176.759C143.187 179.315 141.182 181.741 139.19 184.01C138.644 184.633 137.696 184.695 137.073 184.148C136.451 183.602 136.389 182.654 136.936 182.031C138.887 179.808 140.851 177.432 142.777 174.929C143.282 174.273 144.224 174.15 144.88 174.655ZM132.768 188.74C133.353 189.328 133.35 190.277 132.763 190.862C131.607 192.012 130.475 193.094 129.378 194.104C128.768 194.665 127.819 194.626 127.258 194.016C126.697 193.406 126.737 192.457 127.346 191.896C128.414 190.914 129.518 189.858 130.647 188.735C131.234 188.151 132.184 188.153 132.768 188.74Z" fill="url(#paint2_linear_163_3943)"/>
<path d="M80.3618 133H220.362V220C220.362 231.046 211.408 240 200.362 240H100.362C89.3161 240 80.3618 231.046 80.3618 220V133Z" fill="white"/>
<path d="M217.362 136H83.3618V179.5C83.3618 180.328 82.6902 181 81.8618 181C81.0334 181 80.3618 180.328 80.3618 179.5V133H220.362V220C220.362 231.046 211.408 240 200.362 240H100.362C89.8207 240 81.1843 231.845 80.4172 221.5C80.356 220.674 81.0334 220 81.8618 220C82.6902 220 83.3549 220.674 83.427 221.499C84.186 230.186 91.4781 237 100.362 237H200.362C209.751 237 217.362 229.389 217.362 220V136Z" fill="#667085"/>
<path fill-rule="evenodd" clip-rule="evenodd" d="M80.362 133H83.362V169H67.1601C64.1101 169 62.1822 165.724 63.6634 163.057L80.362 133ZM80.362 139.177L66.2859 164.514C65.9156 165.181 66.3976 166 67.1601 166H80.362V139.177Z" fill="#667085"/>
<path fill-rule="evenodd" clip-rule="evenodd" d="M220.362 133H217.362V169H233.564C236.614 169 238.541 165.724 237.06 163.057L220.362 133ZM220.362 139.177L234.438 164.514C234.808 165.181 234.326 166 233.564 166H220.362V139.177Z" fill="#667085"/>
<path d="M119.362 151H181.362V152C181.362 163.046 172.408 172 161.362 172H139.362C128.316 172 119.362 163.046 119.362 152V151Z" fill="white"/>
<path fill-rule="evenodd" clip-rule="evenodd" d="M119.461 154C119.395 153.342 119.362 152.675 119.362 152V151H181.362V152C181.362 152.675 181.328 153.342 181.263 154C180.26 164.107 171.733 172 161.362 172H139.362C128.991 172 120.464 164.107 119.461 154ZM178.245 154H122.478C123.468 162.446 130.65 169 139.362 169H161.362C170.074 169 177.256 162.446 178.245 154Z" fill="#667085"/>
<path d="M164.858 25.5177C168.28 27.4932 173.461 34.1828 171.485 37.6044C169.51 41.0261 161.126 39.8839 157.704 37.9084C154.283 35.933 153.11 31.5578 155.086 28.1362C157.061 24.7146 161.436 23.5422 164.858 25.5177Z" fill="url(#paint3_linear_163_3943)"/>
<path d="M141.67 28.6508C138.248 26.6753 133.067 19.9856 135.043 16.564C137.018 13.1424 145.402 14.2845 148.824 16.26C152.245 18.2355 153.418 22.6107 151.442 26.0323C149.467 29.4539 145.091 30.6262 141.67 28.6508Z" fill="url(#paint4_linear_163_3943)"/>
<mask id="mask0_163_3943" style="mask-type:alpha" maskUnits="userSpaceOnUse" x="145" y="19" width="16" height="19">
<path d="M159.671 30.2965C157.696 33.7181 151.006 38.8992 147.585 36.9237C144.163 34.9482 145.305 26.5643 147.281 23.1426C149.256 19.721 153.631 18.5487 157.053 20.5242C160.474 22.4996 161.647 26.8748 159.671 30.2965Z" fill="#C4C4C4"/>
</mask>
<g mask="url(#mask0_163_3943)">
<path d="M159.671 30.2965C157.696 33.7181 151.006 38.8992 147.585 36.9237C144.163 34.9482 145.305 26.5643 147.281 23.1426C149.256 19.721 153.631 18.5487 157.053 20.5242C160.474 22.4996 161.647 26.8748 159.671 30.2965Z" fill="url(#paint5_linear_163_3943)"/>
</g>
<path fill-rule="evenodd" clip-rule="evenodd" d="M159.25 8.5526C158.902 8.5526 158.619 8.8352 158.619 9.18381L158.619 10.4426C157.168 10.7602 155.851 11.664 155.05 13.0517C153.539 15.6682 154.436 19.0139 157.052 20.5246C159.669 22.0352 163.014 21.1388 164.525 18.5222C165.29 17.1971 165.438 15.6849 165.057 14.3188C165.111 14.3048 165.164 14.2834 165.215 14.2542L166.308 13.623C166.61 13.4487 166.713 13.0626 166.539 12.7607C166.365 12.4588 165.979 12.3554 165.677 12.5297L164.586 13.1592C164.121 12.308 163.424 11.5697 162.523 11.0493C161.689 10.5678 160.781 10.3309 159.881 10.3162L159.881 9.18381C159.881 8.8352 159.599 8.5526 159.25 8.5526Z" fill="url(#paint6_linear_163_3943)"/>
<defs>
<linearGradient id="paint0_linear_163_3943" x1="30.5902" y1="58.711" x2="56.5911" y2="103.746" gradientUnits="userSpaceOnUse">
<stop stop-color="#26AFAD"/>
<stop offset="1" stop-color="#4A176D"/>
</linearGradient>
<linearGradient id="paint1_linear_163_3943" x1="269.154" y1="190.475" x2="257.305" y2="225.261" gradientUnits="userSpaceOnUse">
<stop stop-color="#26AFAD"/>
<stop offset="1" stop-color="#4A176D"/>
</linearGradient>
<linearGradient id="paint2_linear_163_3943" x1="147.438" y1="39" x2="147.438" y2="194.5" gradientUnits="userSpaceOnUse">
<stop stop-color="#26AFAD"/>
<stop offset="1" stop-color="#4A176D"/>
</linearGradient>
<linearGradient id="paint3_linear_163_3943" x1="155.086" y1="28.1362" x2="171.485" y2="37.6044" gradientUnits="userSpaceOnUse">
<stop stop-color="#53539F"/>
<stop offset="1" stop-color="#53539F"/>
</linearGradient>
<linearGradient id="paint4_linear_163_3943" x1="151.442" y1="26.0323" x2="135.043" y2="16.564" gradientUnits="userSpaceOnUse">
<stop stop-color="#53539F"/>
<stop offset="1" stop-color="#53539F"/>
</linearGradient>
<linearGradient id="paint5_linear_163_3943" x1="157.053" y1="20.5242" x2="147.585" y2="36.9237" gradientUnits="userSpaceOnUse">
<stop stop-color="#26AFAD"/>
<stop offset="1" stop-color="#4A176D"/>
</linearGradient>
<linearGradient id="paint6_linear_163_3943" x1="162.828" y1="10.5204" x2="157.052" y2="20.5246" gradientUnits="userSpaceOnUse">
<stop stop-color="#26AFAD"/>
<stop offset="1" stop-color="#4A176D"/>
</linearGradient>
</defs>
</svg>
