<svg width="16" height="16" viewBox="0 0 16 16" fill="none" xmlns="http://www.w3.org/2000/svg">
<path fill-rule="evenodd" clip-rule="evenodd" d="M4 1.66675H9.66667C10.0349 1.66675 10.3333 1.96522 10.3333 2.33341C10.3333 3.80617 11.5272 5.00008 13 5.00008H13.3333C13.8856 5.00008 14.3333 5.4478 14.3333 6.00008V10.0001C14.3333 12.3933 12.3932 14.3334 10 14.3334H6C3.60677 14.3334 1.66667 12.3933 1.66667 10.0001V4.00008C1.66667 2.71142 2.71134 1.66675 4 1.66675ZM11.3333 2.33341C11.3333 1.41294 10.5871 0.666748 9.66667 0.666748H4C2.15906 0.666748 0.666672 2.15913 0.666672 4.00008V10.0001C0.666672 12.9456 3.05449 15.3334 6 15.3334H10C12.9455 15.3334 15.3333 12.9456 15.3333 10.0001V6.00008C15.3333 4.89551 14.4379 4.00008 13.3333 4.00008H13C12.0795 4.00008 11.3333 3.25389 11.3333 2.33341ZM4.66667 8.66675C4.29848 8.66675 4 8.96522 4 9.33341C4 9.7016 4.29848 10.0001 4.66667 10.0001H11.3333C11.7015 10.0001 12 9.7016 12 9.33341C12 8.96522 11.7015 8.66675 11.3333 8.66675H4.66667Z" fill="#667085"/>
</svg>
