<svg width="18" height="19" viewBox="0 0 18 19" fill="none" xmlns="http://www.w3.org/2000/svg">
<path fill-rule="evenodd" clip-rule="evenodd" d="M2.33709 2.83709C2.5129 2.66127 2.75136 2.5625 3 2.5625H9.75C9.99864 2.5625 10.2371 2.66127 10.4129 2.83709C10.5887 3.0129 10.6875 3.25136 10.6875 3.5V4.25C10.6875 4.56066 10.9393 4.8125 11.25 4.8125C11.5607 4.8125 11.8125 4.56066 11.8125 4.25V3.5C11.8125 2.95299 11.5952 2.42839 11.2084 2.04159C10.8216 1.6548 10.297 1.4375 9.75 1.4375H3C2.45299 1.4375 1.92839 1.6548 1.54159 2.04159C1.1548 2.42839 0.9375 2.95299 0.9375 3.5V10.25C0.9375 10.797 1.1548 11.3216 1.54159 11.7084C1.92839 12.0952 2.45299 12.3125 3 12.3125H3.75C4.06066 12.3125 4.3125 12.0607 4.3125 11.75C4.3125 11.4393 4.06066 11.1875 3.75 11.1875H3C2.75136 11.1875 2.5129 11.0887 2.33709 10.9129C2.16127 10.7371 2.0625 10.4986 2.0625 10.25V3.5C2.0625 3.25136 2.16127 3.0129 2.33709 2.83709ZM7.3125 8.75C7.3125 8.23223 7.73223 7.8125 8.25 7.8125H15C15.5178 7.8125 15.9375 8.23223 15.9375 8.75V15.5C15.9375 16.0178 15.5178 16.4375 15 16.4375H8.25C7.73223 16.4375 7.3125 16.0178 7.3125 15.5V8.75ZM8.25 6.6875C7.11091 6.6875 6.1875 7.61091 6.1875 8.75V15.5C6.1875 16.6391 7.11091 17.5625 8.25 17.5625H15C16.1391 17.5625 17.0625 16.6391 17.0625 15.5V8.75C17.0625 7.61091 16.1391 6.6875 15 6.6875H8.25Z" fill="#667085"/>
</svg>
