<svg width="16" height="16" viewBox="0 0 16 16" fill="none" xmlns="http://www.w3.org/2000/svg">
<path d="M11.5659 6.7796C11.73 6.569 11.6912 6.26566 11.4794 6.10208C11.2675 5.93721 10.9638 5.9765 10.7997 6.18838L9.20603 8.23831L7.38427 6.8118C7.28285 6.73129 7.15493 6.69523 7.02444 6.71197C6.89653 6.72807 6.7796 6.79441 6.70079 6.89681L4.76727 9.40207C4.60383 9.61331 4.64388 9.91665 4.85577 10.0796C4.94363 10.1466 5.04764 10.1794 5.151 10.1794C5.29635 10.1794 5.43977 10.1144 5.53538 9.99071L7.17044 7.87251L8.99091 9.29838C9.09298 9.3776 9.22089 9.41495 9.35009 9.39756C9.478 9.3821 9.59428 9.31577 9.6731 9.21401L11.5659 6.7796Z" fill="#667085"/>
<path fill-rule="evenodd" clip-rule="evenodd" d="M14.6667 5.26206C14.6667 2.91229 13.1553 1.33337 10.906 1.33337H5.09395C2.84465 1.33337 1.33333 2.91229 1.33333 5.26206V10.738C1.33333 13.0878 2.84465 14.6667 5.09395 14.6667H10.906C13.1553 14.6667 14.6667 13.0878 14.6667 10.738V5.26206ZM5.09395 2.26361H10.906C12.6257 2.26361 13.7364 3.44004 13.7364 5.26206V10.738C13.7364 12.56 12.6257 13.7365 10.906 13.7365H5.09395C3.37488 13.7365 2.26356 12.56 2.26356 10.738V5.26206C2.26356 3.44004 3.37488 2.26361 5.09395 2.26361Z" fill="#667085"/>
</svg>
