<svg width="14" height="15" viewBox="0 0 14 15" fill="none" xmlns="http://www.w3.org/2000/svg">
<path fill-rule="evenodd" clip-rule="evenodd" d="M12.2335 5.03985C12.5356 5.06535 12.7609 5.3361 12.7367 5.64586C12.7323 5.69686 12.3359 10.7302 12.1077 12.8415C11.9658 14.1517 11.1218 14.949 9.84774 14.973C8.8728 14.9902 7.93223 15 7.01287 15C6.02184 15 5.05567 14.9887 4.09975 14.9685C2.87686 14.9437 2.03064 14.1307 1.89241 12.8467C1.66202 10.7167 1.2678 5.69611 1.26415 5.64586C1.23928 5.3361 1.46455 5.0646 1.76661 5.03985C2.06429 5.0316 2.33344 5.2461 2.35757 5.55511C2.35991 5.58766 2.52107 7.63791 2.69669 9.66645L2.73197 10.0713C2.82042 11.0796 2.91008 12.0484 2.98291 12.723C3.06117 13.4527 3.44515 13.8292 4.12242 13.8435C5.95089 13.8832 7.81667 13.8855 9.82799 13.848C10.5477 13.8337 10.9368 13.4647 11.0172 12.7177C11.244 10.6222 11.6389 5.60611 11.6433 5.55511C11.6674 5.2461 11.9344 5.0301 12.2335 5.03985ZM8.54791 0C9.21933 0 9.80956 0.464257 9.9829 1.12952L10.1687 2.07528C10.2287 2.38532 10.494 2.61173 10.8012 2.61671L13.2015 2.61679C13.5043 2.61679 13.75 2.86879 13.75 3.1793C13.75 3.4898 13.5043 3.74181 13.2015 3.74181L10.8227 3.74169C10.819 3.74177 10.8153 3.74181 10.8116 3.74181L10.7937 3.74106L3.206 3.74171C3.2001 3.74178 3.1942 3.74181 3.18829 3.74181L3.17702 3.74106L0.798543 3.74181C0.495747 3.74181 0.25 3.4898 0.25 3.1793C0.25 2.86879 0.495747 2.61679 0.798543 2.61679L3.19823 2.61604L3.27212 2.61124C3.54733 2.57463 3.77606 2.36029 3.83191 2.07528L4.00964 1.16327C4.19029 0.464257 4.78052 0 5.45194 0H8.54791ZM8.54791 1.12502H5.45194C5.27641 1.12502 5.12208 1.24577 5.07747 1.41902L4.90705 2.29653C4.8854 2.40768 4.85386 2.5148 4.8135 2.61699H9.18657C9.14616 2.5148 9.11456 2.40768 9.0928 2.29653L8.91507 1.38452C8.87777 1.24577 8.72345 1.12502 8.54791 1.12502Z" fill="#667085"/>
</svg>
