<svg width="12" height="12" viewBox="0 0 12 12" fill="none" xmlns="http://www.w3.org/2000/svg">
<path d="M6.66683 1.33301C6.66683 0.964818 6.36835 0.666341 6.00016 0.666341C5.63197 0.666341 5.3335 0.964818 5.3335 1.33301H6.66683ZM6.00016 10.6663L5.52876 11.1377C5.78911 11.3981 6.21122 11.3981 6.47157 11.1377L6.00016 10.6663ZM11.1382 6.47108C11.3986 6.21073 11.3986 5.78862 11.1382 5.52827C10.8779 5.26792 10.4558 5.26792 10.1954 5.52827L11.1382 6.47108ZM1.8049 5.52827C1.54455 5.26792 1.12244 5.26792 0.862092 5.52827C0.601742 5.78862 0.601742 6.21073 0.862092 6.47108L1.8049 5.52827ZM5.3335 1.33301V10.6663H6.66683V1.33301H5.3335ZM10.1954 5.52827L5.52876 10.1949L6.47157 11.1377L11.1382 6.47108L10.1954 5.52827ZM6.47157 10.1949L1.8049 5.52827L0.862092 6.47108L5.52876 11.1377L6.47157 10.1949Z" fill="#667085"/>
</svg>
