<svg width="18" height="19" viewBox="0 0 18 19" fill="none" xmlns="http://www.w3.org/2000/svg">
<path fill-rule="evenodd" clip-rule="evenodd" d="M16.2692 15.8119C16.6036 15.8119 16.875 16.078 16.875 16.4059C16.875 16.7338 16.6036 16.9999 16.2692 16.9999H10.4112C10.0768 16.9999 9.80544 16.7338 9.80544 16.4059C9.80544 16.078 10.0768 15.8119 10.4112 15.8119H16.2692ZM12.5263 2.51768C12.5667 2.54857 13.9179 3.57815 13.9179 3.57815C14.409 3.86485 14.7927 4.37727 14.938 4.98393C15.0826 5.58426 14.9776 6.2036 14.6408 6.7271C14.6386 6.7306 14.6363 6.73404 14.6285 6.74431L14.6225 6.75224C14.5678 6.82289 14.3301 7.11755 13.1307 8.59112C13.1196 8.61043 13.1069 8.62852 13.0932 8.64609C13.0729 8.672 13.0509 8.69582 13.0274 8.7175C12.9456 8.81851 12.8592 8.92464 12.7683 9.03622L12.5843 9.26231C12.2044 9.72877 11.7539 10.2819 11.2193 10.938L10.945 11.2747C9.91308 12.5412 8.59148 14.1628 6.89847 16.2397C6.52774 16.6927 5.97206 16.9564 5.3752 16.9636L2.43607 17H2.428C2.14774 17 1.90382 16.8115 1.8384 16.543L1.17691 13.794C1.04042 13.2246 1.1761 12.6369 1.54844 12.1807L9.15672 2.84952C9.15995 2.84635 9.16237 2.84239 9.1656 2.83923C9.99993 1.86112 11.5087 1.71698 12.5263 2.51768ZM8.30844 5.79125L2.49423 12.9228C2.35611 13.0923 2.30523 13.3109 2.35611 13.5208L2.90614 15.8057L5.36066 15.7756C5.59407 15.7732 5.80972 15.671 5.95268 15.4968C6.68886 14.5936 7.61411 13.4584 8.56538 12.2911L8.90194 11.8781L9.23907 11.4644C10.1312 10.3697 11.0126 9.28794 11.75 8.38254L8.30844 5.79125ZM10.0985 3.59716L9.06523 4.86304L12.5065 7.45358C13.1689 6.64003 13.6047 6.1042 13.645 6.05312C13.7774 5.84245 13.8291 5.54466 13.7596 5.25796C13.6886 4.96413 13.502 4.71466 13.233 4.55547C13.1757 4.51666 11.8148 3.48074 11.7728 3.44827C11.2607 3.04594 10.5136 3.11563 10.0985 3.59716Z" fill="#667085"/>
</svg>
