<svg width="16" height="16" viewBox="0 0 16 16" fill="none" xmlns="http://www.w3.org/2000/svg">
<path fill-rule="evenodd" clip-rule="evenodd" d="M3.86357 8.9405C6.92402 8.9405 7.06015 9.97845 7.06015 12.1371C7.06015 13.2186 7.06015 13.9881 6.60586 14.5514C6.08313 15.2005 5.13168 15.3337 3.86357 15.3337C2.59547 15.3337 1.64402 15.2005 1.12128 14.5514C0.666992 13.9881 0.666992 13.2194 0.666992 12.1559L1.23109 12.1371H0.666992C0.666992 9.97845 0.803129 8.9405 3.86357 8.9405ZM12.1371 8.9405C15.1975 8.9405 15.3337 9.97845 15.3337 12.1371C15.3337 13.2186 15.3337 13.9881 14.8794 14.5514C14.3566 15.2005 13.4052 15.3337 12.1371 15.3337C10.869 15.3337 9.91752 15.2005 9.39479 14.5514C8.9405 13.9881 8.9405 13.2194 8.9405 12.1559L9.5046 12.1371H8.9405C8.9405 9.97845 9.07663 8.9405 12.1371 8.9405ZM4.01863 10.069L3.86357 10.0687C1.90127 10.0687 1.80064 10.2095 1.79548 11.8566L1.79579 12.4982C1.79936 13.1533 1.82432 13.6265 1.99903 13.8444C2.19834 14.0911 2.79027 14.2055 3.86357 14.2055C4.93687 14.2055 5.5288 14.0904 5.72812 13.8437C5.93195 13.5902 5.93195 12.9885 5.93195 12.1551C5.93195 10.2746 5.93195 10.0779 4.01863 10.069ZM12.2921 10.069L12.1371 10.0687C10.1748 10.0687 10.0741 10.2095 10.069 11.8566L10.0693 12.4982C10.0729 13.1533 10.0978 13.6265 10.2725 13.8444C10.4718 14.0911 11.0638 14.2055 12.1371 14.2055C13.2104 14.2055 13.8023 14.0904 14.0016 13.8437C14.2055 13.5902 14.2055 12.9885 14.2055 12.1551C14.2055 10.2746 14.2055 10.0779 12.2921 10.069ZM3.86357 0.666992C6.92402 0.666992 7.06015 1.70494 7.06015 3.86357C7.06015 4.94515 7.06015 5.71458 6.60586 6.27793C6.08313 6.92703 5.13168 7.06015 3.86357 7.06015C2.59547 7.06015 1.64402 6.92703 1.12128 6.27793C0.666992 5.71458 0.666992 4.9459 0.666992 3.88238L1.23109 3.86357H0.666992C0.666992 1.70494 0.803129 0.666992 3.86357 0.666992ZM12.1371 0.666992C15.1975 0.666992 15.3337 1.70494 15.3337 3.86357C15.3337 4.94515 15.3337 5.71458 14.8794 6.27793C14.3566 6.92703 13.4052 7.06015 12.1371 7.06015C10.869 7.06015 9.91752 6.92703 9.39479 6.27793C8.9405 5.71458 8.9405 4.9459 8.9405 3.88238L9.5046 3.86357H8.9405C8.9405 1.70494 9.07663 0.666992 12.1371 0.666992ZM4.01863 1.79553L3.86357 1.7952C1.90127 1.7952 1.80064 1.93601 1.79548 3.58306L1.79579 4.22473C1.79936 4.87982 1.82432 5.35302 1.99903 5.57092C2.19834 5.81762 2.79027 5.93195 3.86357 5.93195C4.93687 5.93195 5.5288 5.81687 5.72812 5.57017C5.93195 5.3167 5.93195 4.71499 5.93195 3.88162C5.93195 2.00113 5.93195 1.80439 4.01863 1.79553ZM12.2921 1.79553L12.1371 1.7952C10.1748 1.7952 10.0741 1.93601 10.069 3.58306L10.0693 4.22473C10.0729 4.87982 10.0978 5.35302 10.2725 5.57092C10.4718 5.81762 11.0638 5.93195 12.1371 5.93195C13.2104 5.93195 13.8023 5.81687 14.0016 5.57017C14.2055 5.3167 14.2055 4.71499 14.2055 3.88162C14.2055 2.00113 14.2055 1.80439 12.2921 1.79553Z" fill="#667085"/>
</svg>
