<svg width="168" height="49" viewBox="0 0 168 49" fill="none" xmlns="http://www.w3.org/2000/svg">
<path fill-rule="evenodd" clip-rule="evenodd" d="M23.8609 27.2602C23.0639 27.695 22.9628 27.7604 22.5132 27.7604C22.3165 27.7604 21.9609 27.5472 21.5784 27.28C21.5784 27.28 21.3255 27.1092 20.5945 26.6259C20.1111 26.3102 19.9542 26.1106 19.5314 26.1106C19.1009 26.1106 18.8753 26.2752 17.0211 27.28C15.7858 27.947 16.0978 28.1573 16.7424 28.5864C18.5934 29.8104 17.5543 29.122 20.1078 30.8316C20.9131 31.3734 21.39 31.7698 21.8297 31.7698C22.2684 31.7698 23.0705 31.37 25.6599 29.9723C32.7325 26.1529 38.8676 22.8432 44.2229 19.9523L44.9161 15.8848L23.8609 27.2602Z" fill="#4A176D"/>
<path fill-rule="evenodd" clip-rule="evenodd" d="M20.8818 44.1143C19.6445 44.7726 19.565 44.6409 18.6732 44.0508C16.0729 42.3415 7.29504 36.6066 5.38185 35.3267C4.89617 35.0003 4.2965 34.7308 3.99769 34.7428C3.60048 34.7546 3.46641 34.8841 2.45112 35.4305C0.229678 36.6166 0.382734 36.6234 0.897902 36.9542C1.39358 37.2652 14.6179 45.9626 17.812 48.0577C18.2204 48.3296 18.5514 48.4918 18.9503 48.4918C19.3631 48.4918 19.9756 48.3296 20.5085 48.0413C28.7065 43.662 35.7082 39.9286 41.7475 36.7029L42.4529 32.6074C36.3344 35.8721 29.2272 39.668 20.8822 44.1156L20.8818 44.1143Z" fill="#4A176D"/>
<path fill-rule="evenodd" clip-rule="evenodd" d="M21.5655 35.6656C20.8515 36.0438 20.7015 36.0975 20.2437 36.0975C19.9808 36.0975 19.4948 35.7684 18.8814 35.3709C16.723 33.9862 13.1502 31.7732 12.8979 31.6021C12.8979 31.6021 12.6692 31.4497 12.0508 31.0455C11.5564 30.7237 11.203 30.4443 10.7665 30.4443C10.3188 30.4443 10.3126 30.4607 9.38067 30.9512C7.04197 32.1734 6.89876 32.2683 7.34644 32.5573C10.1525 34.3774 12.9277 36.1782 18.1507 39.5271C19.0922 40.1305 19.1169 40.1305 19.5169 40.1305C19.9461 40.1305 20.1337 40.1254 20.8297 39.7574C29.2347 35.3331 36.394 31.5592 42.5597 28.317L43.2737 24.2461C37.1155 27.4843 29.9594 31.2502 21.5659 35.6665L21.5655 35.6656Z" fill="#4A176D"/>
<path fill-rule="evenodd" clip-rule="evenodd" d="M23.7838 19.906C23.9777 19.906 24.3342 20.1208 24.7208 20.3891C24.7208 20.3891 24.9727 20.5598 25.7077 21.0401C26.1917 21.3594 26.3523 21.5583 26.7696 21.5583C27.2027 21.5583 27.4306 21.3945 29.2887 20.3891C30.5269 19.7173 30.2159 19.5082 29.5691 19.081C27.7131 17.853 28.7525 18.5469 26.1967 16.8268C25.3851 16.2888 24.9119 15.8848 24.4689 15.8848C24.0292 15.8848 23.2252 16.2888 20.6294 17.6869C13.5692 21.4967 7.44396 24.8065 2.09522 27.6951L1.39697 31.7695L22.4315 20.4052C23.2338 19.9718 23.3364 19.906 23.7838 19.906Z" fill="#00B0AD"/>
<path fill-rule="evenodd" clip-rule="evenodd" d="M27.6079 4.4471C30.2087 6.16425 39.0075 11.915 40.9248 13.1938C41.4113 13.5239 42.0104 13.7924 42.309 13.7855C42.7075 13.7753 42.8407 13.6399 43.8616 13.0954C46.0836 11.9022 45.932 11.8988 45.4142 11.5688C44.9194 11.2553 31.6704 2.53364 28.4721 0.430153C28.0637 0.163296 27.7327 0 27.3292 0C26.9146 0 26.3055 0.163296 25.7699 0.446648C17.5883 4.82041 10.5989 8.55469 4.56867 11.7767L3.86035 15.8848C9.97273 12.6234 17.0688 8.83109 25.3974 4.38667C26.6318 3.72377 26.7118 3.85877 27.6079 4.4471Z" fill="#00B0AD"/>
<path fill-rule="evenodd" clip-rule="evenodd" d="M25.2216 11.5633C25.4821 11.5633 25.9701 11.895 26.5853 12.2888C28.7487 13.6802 32.3282 15.8966 32.5786 16.0692C32.5786 16.0692 32.8077 16.2248 33.4346 16.6294C33.9242 16.9507 34.2754 17.2342 34.7122 17.2342C35.1608 17.2342 35.1709 17.2127 36.1074 16.7222C38.4437 15.4954 38.5934 15.4026 38.147 15.114C35.329 13.2875 32.5494 11.487 27.314 8.12536C26.3758 7.52441 26.3494 7.52441 25.9486 7.52441C25.5181 7.52441 25.3301 7.5301 24.6328 7.89788C16.2459 12.3125 9.09562 16.0822 2.9348 19.3299L2.21777 23.4097C8.37269 20.1668 15.5207 16.408 23.8944 11.9985C24.6114 11.6189 24.7584 11.5633 25.2216 11.5633Z" fill="#00B0AD"/>
<path fill-rule="evenodd" clip-rule="evenodd" d="M60.5741 12.1066H54.6921L55.998 4.17969H51.9442L49.0757 21.7324L53.1328 21.7369L54.1098 15.7923H59.9951L59.0127 21.7291H62.938L65.7966 4.17969H61.8784L60.5741 12.1066Z" fill="#00B0AD"/>
<path fill-rule="evenodd" clip-rule="evenodd" d="M66.9801 9.00025L70.413 11.0929L66.2406 13.3476L64.9609 20.9013H69.0877L71.6493 5.85254H67.5168L66.9801 9.00025Z" fill="#00B0AD"/>
<path fill-rule="evenodd" clip-rule="evenodd" d="M81.3349 10.1958C80.627 9.39221 79.3215 8.73926 77.7385 8.73926C76.4303 8.73926 75.7399 9.14131 75.7045 9.14131L75.3631 11.3169C75.3697 11.3169 76.0524 11.1383 76.6086 11.1998C79.123 11.481 78.8182 14.2647 78.6792 15.1388C78.4098 16.8294 77.4784 18.5911 75.7416 19.2228C74.6101 19.6411 73.9502 19.4395 73.9502 19.4395L76.0884 5.85549L72.4168 5.85156L69.9771 21.3619C69.9852 21.3485 72.7429 21.746 74.7655 21.736C76.7656 21.7275 78.5968 21.1603 80.0288 19.8902C81.3054 18.7529 82.0786 17.0556 82.408 14.9237C82.4876 14.3889 82.5277 13.8804 82.5155 13.405C82.4735 12.0415 82.0917 11.0543 81.3349 10.1958Z" fill="#00B0AD"/>
<path fill-rule="evenodd" clip-rule="evenodd" d="M85.8452 10.2235C85.1588 10.8461 84.9214 12.4248 84.7165 13.6811L83.3555 21.737H87.2146L88.6435 13.5349C88.8098 12.5133 89.3474 12.0223 90.1684 12.0223H91.5094L92.552 9.19629C88.4269 9.19629 86.7532 9.39836 85.8452 10.2235Z" fill="#00B0AD"/>
<path fill-rule="evenodd" clip-rule="evenodd" d="M109.739 11.6373L110.107 9.08405H108.283L108.74 5.85156L105.317 7.0155L105.017 9.08405H103.783L103.419 11.6373H104.65L103.957 16.4125C103.852 17.0867 103.758 17.775 103.675 18.462C103.483 19.9233 104.096 20.7364 104.365 21.0175C104.836 21.5272 105.423 21.7364 106.389 21.7364L106.491 21.7325C107.515 21.7191 108.154 21.4202 108.338 21.2935L108.688 18.9116C108.506 18.969 108.185 19.0387 107.798 19.0387C107.283 19.0387 106.998 18.7276 106.984 18.1369C106.984 18.0181 107.003 17.8681 107.026 17.6946L107.92 11.6373H109.739Z" fill="#00B0AD"/>
<path fill-rule="evenodd" clip-rule="evenodd" d="M126.143 13.6846L126.15 13.6504C126.272 13.6504 127.088 13.3271 127.962 12.5203C128.839 11.7059 129.161 11.1859 129.316 9.99171C129.466 8.73664 128.832 7.2882 127.741 6.63299C126.367 5.82177 125.419 5.8517 123.659 5.8517L116.845 5.85547L114.289 20.9001L118.285 20.8968L120.454 8.1438H122.959C124.467 8.1438 125.33 8.87994 125.27 10.1154C125.215 11.1374 124.686 11.6139 124.171 11.941C123.615 12.3045 123.034 12.4984 121.565 12.5001L119.845 12.5017L119.475 14.6711H120.995C123.733 14.744 124.254 15.9653 124.008 16.8808C123.74 17.8815 122.826 18.5412 120.276 18.6254H118.804L118.418 20.8964H121.74C122.943 20.8964 124.877 20.8714 125.954 20.371C127.976 19.4289 128.436 18.0413 128.569 16.9954C128.648 16.3777 128.586 15.0547 127.723 14.3734C126.89 13.716 126.143 13.6846 126.143 13.6846Z" fill="#00B0AD"/>
<path fill-rule="evenodd" clip-rule="evenodd" d="M148.03 10.0322C146.035 10.0322 144.27 10.3512 142.772 10.972L141.042 21.7369L144.642 21.7338L146.143 12.5314L146.264 12.5003C146.675 12.392 147.13 12.3325 147.583 12.3325C148.548 12.3325 149.052 12.7244 149.079 13.5055C149.079 13.6326 149.068 13.7628 149.038 13.9033L147.76 21.725L151.401 21.7228L152.689 13.8845C152.735 13.5908 152.752 13.3044 152.746 13.0332C152.693 11.0127 151.147 10.0322 148.03 10.0322Z" fill="#00B0AD"/>
<path fill-rule="evenodd" clip-rule="evenodd" d="M156.817 5.85588L154.415 20.9013H158.025L158.975 15.1234L161.455 20.9013L165.688 20.9008L162.504 14.4132L166.956 9.02106H163.11L159.119 14.1502L160.432 5.85254L156.817 5.85588Z" fill="#00B0AD"/>
<path fill-rule="evenodd" clip-rule="evenodd" d="M96.973 19.1846C95.4932 19.0366 94.2282 17.7735 94.4013 15.9728C94.6655 13.163 95.7967 12.3249 96.1888 11.9374C96.6369 11.4956 97.1912 11.2724 97.845 11.2724C98.8307 11.2724 99.3072 11.8879 99.2596 13.0972C99.2504 13.4074 99.201 13.7437 99.1325 14.104L99.0932 14.2661H95.193C95.193 14.2661 95.0041 14.77 94.8804 15.3415C94.7633 15.8786 94.7583 16.1539 94.7583 16.1539L102.196 16.1823C102.417 15.3295 102.549 14.518 102.574 13.7643C102.631 12.3467 102.328 11.2354 101.682 10.4529C100.993 9.61749 99.9384 9.19629 98.5581 9.19629C96.7339 9.19629 95.127 9.74155 93.786 10.8246C92.4383 11.9064 91.5395 13.3703 91.1023 15.1788C90.9727 15.7143 90.9 16.2324 90.8799 16.7069C90.8289 18.0837 91.3497 19.4638 92.251 20.3062C93.1665 21.1607 94.2993 21.737 95.958 21.737C97.6201 21.737 99.6843 21.2668 101.674 19.8001L100.239 18.216C98.6961 19.1813 97.7522 19.2657 96.973 19.1846Z" fill="#00B0AD"/>
<path fill-rule="evenodd" clip-rule="evenodd" d="M136.016 9.1963C135.003 9.19471 133.789 9.35716 132.471 9.67201L132.096 11.9269C133.415 11.4725 134.356 11.3872 134.967 11.3872C136.27 11.3883 136.802 11.716 136.811 12.4425C136.811 12.5586 136.612 13.7578 136.593 13.8701C136.362 15.2711 135.757 18.9402 135.757 18.9402C135.73 19.0963 135.532 19.1001 134.469 19.0985C133.74 19.0963 133.192 18.8982 132.89 18.5237C132.657 18.235 132.576 17.8445 132.645 17.3955C132.767 16.6353 133.165 16.0648 133.829 15.6909C134.462 15.3324 135.299 15.2812 136.229 15.2668L136.571 13.2618C136.423 13.2533 136.008 13.2432 135.869 13.2432C134.307 13.2432 132.837 13.608 131.701 14.2883C131.294 14.5334 130.929 14.8173 130.62 15.1401C129.757 16.0408 129.304 17.1973 129.339 18.4049C129.371 19.4287 129.95 20.0349 130.682 20.3919C131.569 20.8228 132.678 20.8995 133.329 20.8995C133.645 20.8995 133.895 20.9027 133.908 20.8995H138.741L139.416 16.9853C139.416 16.9853 140.08 12.76 140.156 12.2913C140.51 10.079 138.953 9.20274 136.016 9.1963Z" fill="#00B0AD"/>
<path d="M56.1656 25.2933C57.7936 25.2933 59.2163 25.616 60.4336 26.2613C61.651 26.9066 62.5896 27.816 63.2496 28.9893C63.9243 30.148 64.2616 31.49 64.2616 33.0153C64.2616 34.526 63.9243 35.868 63.2496 37.0413C62.5896 38.2146 61.6436 39.124 60.4116 39.7693C59.1943 40.4146 57.779 40.7373 56.1656 40.7373H50.3796V25.2933H56.1656ZM55.9236 37.4813C57.3463 37.4813 58.4536 37.0926 59.2456 36.3153C60.0376 35.538 60.4336 34.438 60.4336 33.0153C60.4336 31.5926 60.0376 30.4853 59.2456 29.6933C58.4536 28.9013 57.3463 28.5053 55.9236 28.5053H54.1416V37.4813H55.9236ZM83.854 25.2933V40.7373H80.092V31.4753L76.638 40.7373H73.602L70.126 31.4533V40.7373H66.364V25.2933H70.808L75.142 35.9853L79.432 25.2933H83.854ZM92.1473 40.8913C91.018 40.8913 90.006 40.708 89.1113 40.3413C88.2166 39.9746 87.498 39.432 86.9553 38.7133C86.4273 37.9946 86.1486 37.1293 86.1193 36.1173H90.1233C90.182 36.6893 90.38 37.1293 90.7173 37.4373C91.0546 37.7306 91.4946 37.8773 92.0373 37.8773C92.5946 37.8773 93.0346 37.7526 93.3573 37.5033C93.68 37.2393 93.8413 36.88 93.8413 36.4253C93.8413 36.044 93.7093 35.7286 93.4453 35.4793C93.196 35.23 92.8806 35.0246 92.4993 34.8633C92.1326 34.702 91.6046 34.5186 90.9153 34.3133C89.918 34.0053 89.104 33.6973 88.4733 33.3893C87.8426 33.0813 87.3 32.6266 86.8453 32.0253C86.3906 31.424 86.1633 30.6393 86.1633 29.6713C86.1633 28.234 86.684 27.112 87.7253 26.3053C88.7666 25.484 90.1233 25.0733 91.7953 25.0733C93.4966 25.0733 94.868 25.484 95.9093 26.3053C96.9506 27.112 97.508 28.2413 97.5813 29.6933H93.5113C93.482 29.1946 93.2986 28.806 92.9613 28.5273C92.624 28.234 92.1913 28.0873 91.6633 28.0873C91.2086 28.0873 90.842 28.212 90.5633 28.4613C90.2846 28.696 90.1453 29.0406 90.1453 29.4953C90.1453 29.994 90.38 30.3826 90.8493 30.6613C91.3186 30.94 92.052 31.2406 93.0493 31.5633C94.0466 31.9006 94.8533 32.2233 95.4693 32.5313C96.1 32.8393 96.6426 33.2866 97.0973 33.8733C97.552 34.46 97.7793 35.2153 97.7793 36.1393C97.7793 37.0193 97.552 37.8186 97.0973 38.5373C96.6573 39.256 96.012 39.828 95.1613 40.2533C94.3106 40.6786 93.306 40.8913 92.1473 40.8913Z" fill="#4A176D"/>
</svg>
