<svg width="168" height="49" viewBox="0 0 168 49" fill="none" xmlns="http://www.w3.org/2000/svg">
<path fill-rule="evenodd" clip-rule="evenodd" d="M23.8605 27.2602C23.0634 27.695 22.9623 27.7604 22.5127 27.7604C22.316 27.7604 21.9604 27.5472 21.5779 27.28C21.5779 27.28 21.325 27.1092 20.5941 26.6259C20.1106 26.3102 19.9538 26.1106 19.5309 26.1106C19.1004 26.1106 18.8748 26.2752 17.0206 27.28C15.7854 27.947 16.0973 28.1573 16.742 28.5864C18.5929 29.8104 17.5538 29.122 20.1073 30.8316C20.9126 31.3734 21.3895 31.7698 21.8293 31.7698C22.2679 31.7698 23.07 31.37 25.6594 29.9723C32.732 26.1529 38.8671 22.8432 44.2224 19.9523L44.9156 15.8848L23.8605 27.2602Z" fill="#4A176D"/>
<path fill-rule="evenodd" clip-rule="evenodd" d="M20.8813 44.1143C19.644 44.7726 19.5646 44.6409 18.6727 44.0508C16.0724 42.3415 7.29456 36.6066 5.38136 35.3267C4.89569 35.0003 4.29601 34.7308 3.9972 34.7428C3.59999 34.7546 3.46592 34.8841 2.45063 35.4305C0.22919 36.6166 0.382246 36.6234 0.897413 36.9542C1.3931 37.2652 14.6174 45.9626 17.8116 48.0577C18.2199 48.3296 18.5509 48.4918 18.9498 48.4918C19.3626 48.4918 19.9751 48.3296 20.508 48.0413C28.706 43.662 35.7077 39.9286 41.747 36.7029L42.4524 32.6074C36.3339 35.8721 29.2267 39.668 20.8817 44.1156L20.8813 44.1143Z" fill="#4A176D"/>
<path fill-rule="evenodd" clip-rule="evenodd" d="M21.565 35.6656C20.851 36.0438 20.7011 36.0975 20.2432 36.0975C19.9803 36.0975 19.4943 35.7684 18.8809 35.3709C16.7225 33.9862 13.1497 31.7732 12.8974 31.6021C12.8974 31.6021 12.6687 31.4497 12.0503 31.0455C11.5559 30.7237 11.2026 30.4443 10.7661 30.4443C10.3183 30.4443 10.3121 30.4607 9.38018 30.9512C7.04148 32.1734 6.89828 32.2683 7.34595 32.5573C10.152 34.3774 12.9272 36.1782 18.1502 39.5271C19.0917 40.1305 19.1164 40.1305 19.5164 40.1305C19.9456 40.1305 20.1333 40.1254 20.8292 39.7574C29.2342 35.3331 36.3935 31.5592 42.5592 28.317L43.2733 24.2461C37.1151 27.4843 29.9589 31.2502 21.5654 35.6665L21.565 35.6656Z" fill="#4A176D"/>
<path fill-rule="evenodd" clip-rule="evenodd" d="M23.7833 19.906C23.9772 19.906 24.3337 20.1208 24.7203 20.3891C24.7203 20.3891 24.9722 20.5598 25.7072 21.0401C26.1912 21.3594 26.3518 21.5583 26.7691 21.5583C27.2022 21.5583 27.4301 21.3945 29.2882 20.3891C30.5264 19.7173 30.2154 19.5082 29.5686 19.081C27.7126 17.853 28.7521 18.5469 26.1963 16.8268C25.3846 16.2888 24.9115 15.8848 24.4684 15.8848C24.0287 15.8848 23.2247 16.2888 20.6289 17.6869C13.5687 21.4967 7.44347 24.8065 2.09473 27.6951L1.39648 31.7695L22.431 20.4052C23.2333 19.9718 23.3359 19.906 23.7833 19.906Z" fill="#00B0AD"/>
<path fill-rule="evenodd" clip-rule="evenodd" d="M27.6074 4.4471C30.2082 6.16425 39.007 11.915 40.9243 13.1938C41.4108 13.5239 42.0099 13.7924 42.3085 13.7855C42.707 13.7753 42.8402 13.6399 43.8612 13.0954C46.0831 11.9022 45.9315 11.8988 45.4137 11.5688C44.9189 11.2553 31.6699 2.53364 28.4717 0.430153C28.0632 0.163296 27.7322 0 27.3287 0C26.9141 0 26.305 0.163296 25.7694 0.446648C17.5879 4.82041 10.5984 8.55469 4.56818 11.7767L3.85986 15.8848C9.97224 12.6234 17.0683 8.83109 25.3969 4.38667C26.6313 3.72377 26.7113 3.85877 27.6074 4.4471Z" fill="#00B0AD"/>
<path fill-rule="evenodd" clip-rule="evenodd" d="M25.2211 11.5633C25.4816 11.5633 25.9696 11.895 26.5848 12.2888C28.7482 13.6802 32.3277 15.8966 32.5781 16.0692C32.5781 16.0692 32.8072 16.2248 33.4341 16.6294C33.9238 16.9507 34.275 17.2342 34.7117 17.2342C35.1603 17.2342 35.1704 17.2127 36.1069 16.7222C38.4432 15.4954 38.5929 15.4026 38.1465 15.114C35.3285 13.2875 32.5489 11.487 27.3135 8.12536C26.3753 7.52441 26.3489 7.52441 25.9481 7.52441C25.5176 7.52441 25.3296 7.5301 24.6323 7.89788C16.2454 12.3125 9.09513 16.0822 2.93431 19.3299L2.21729 23.4097C8.3722 20.1668 15.5202 16.408 23.8939 11.9985C24.6109 11.6189 24.7579 11.5633 25.2211 11.5633Z" fill="#00B0AD"/>
<path fill-rule="evenodd" clip-rule="evenodd" d="M60.5736 12.1066H54.6916L55.9975 4.17969H51.9437L49.0752 21.7324L53.1324 21.7369L54.1093 15.7923H59.9946L59.0122 21.7291H62.9376L65.7961 4.17969H61.8779L60.5736 12.1066Z" fill="#00B0AD"/>
<path fill-rule="evenodd" clip-rule="evenodd" d="M66.9796 9.00025L70.4125 11.0929L66.2401 13.3476L64.9604 20.9013H69.0872L71.6488 5.85254H67.5163L66.9796 9.00025Z" fill="#00B0AD"/>
<path fill-rule="evenodd" clip-rule="evenodd" d="M81.3344 10.1958C80.6265 9.39221 79.321 8.73926 77.738 8.73926C76.4298 8.73926 75.7394 9.14131 75.704 9.14131L75.3626 11.3169C75.3692 11.3169 76.0519 11.1383 76.6081 11.1998C79.1226 11.481 78.8177 14.2647 78.6787 15.1388C78.4093 16.8294 77.4779 18.5911 75.7411 19.2228C74.6096 19.6411 73.9497 19.4395 73.9497 19.4395L76.0879 5.85549L72.4163 5.85156L69.9766 21.3619C69.9848 21.3485 72.7424 21.746 74.765 21.736C76.7652 21.7275 78.5963 21.1603 80.0283 19.8902C81.305 18.7529 82.0781 17.0556 82.4075 14.9237C82.4871 14.3889 82.5273 13.8804 82.515 13.405C82.473 12.0415 82.0913 11.0543 81.3344 10.1958Z" fill="#00B0AD"/>
<path fill-rule="evenodd" clip-rule="evenodd" d="M85.8447 10.2235C85.1583 10.8461 84.9209 12.4248 84.7161 13.6811L83.355 21.737H87.2142L88.643 13.5349C88.8093 12.5133 89.3469 12.0223 90.1679 12.0223H91.5089L92.5515 9.19629C88.4264 9.19629 86.7527 9.39836 85.8447 10.2235Z" fill="#00B0AD"/>
<path fill-rule="evenodd" clip-rule="evenodd" d="M109.739 11.6373L110.107 9.08405H108.283L108.739 5.85156L105.316 7.0155L105.017 9.08405H103.782L103.418 11.6373H104.649L103.957 16.4125C103.852 17.0867 103.757 17.775 103.674 18.462C103.483 19.9233 104.096 20.7364 104.365 21.0175C104.836 21.5272 105.422 21.7364 106.389 21.7364L106.491 21.7325C107.514 21.7191 108.154 21.4202 108.338 21.2935L108.687 18.9116C108.506 18.969 108.185 19.0387 107.798 19.0387C107.283 19.0387 106.998 18.7276 106.983 18.1369C106.983 18.0181 107.003 17.8681 107.026 17.6946L107.92 11.6373H109.739Z" fill="#00B0AD"/>
<path fill-rule="evenodd" clip-rule="evenodd" d="M126.142 13.6846L126.149 13.6504C126.272 13.6504 127.088 13.3271 127.962 12.5203C128.839 11.7059 129.16 11.1859 129.315 9.99171C129.466 8.73664 128.831 7.2882 127.74 6.63299C126.366 5.82177 125.418 5.8517 123.658 5.8517L116.845 5.85547L114.288 20.9001L118.284 20.8968L120.453 8.1438H122.959C124.466 8.1438 125.33 8.87994 125.27 10.1154C125.214 11.1374 124.686 11.6139 124.17 11.941C123.614 12.3045 123.034 12.4984 121.565 12.5001L119.844 12.5017L119.475 14.6711H120.995C123.732 14.744 124.254 15.9653 124.008 16.8808C123.74 17.8815 122.826 18.5412 120.276 18.6254H118.804L118.417 20.8964H121.74C122.943 20.8964 124.877 20.8714 125.953 20.371C127.976 19.4289 128.436 18.0413 128.569 16.9954C128.648 16.3777 128.585 15.0547 127.722 14.3734C126.89 13.716 126.142 13.6846 126.142 13.6846Z" fill="#00B0AD"/>
<path fill-rule="evenodd" clip-rule="evenodd" d="M148.03 10.0322C146.035 10.0322 144.27 10.3512 142.772 10.972L141.042 21.7369L144.642 21.7338L146.143 12.5314L146.263 12.5003C146.674 12.392 147.129 12.3325 147.582 12.3325C148.548 12.3325 149.051 12.7244 149.078 13.5055C149.078 13.6326 149.067 13.7628 149.037 13.9033L147.76 21.725L151.401 21.7228L152.689 13.8845C152.734 13.5908 152.752 13.3044 152.746 13.0332C152.692 11.0127 151.146 10.0322 148.03 10.0322Z" fill="#00B0AD"/>
<path fill-rule="evenodd" clip-rule="evenodd" d="M156.817 5.85588L154.415 20.9013H158.025L158.974 15.1234L161.454 20.9013L165.688 20.9008L162.503 14.4132L166.955 9.02106H163.109L159.119 14.1502L160.432 5.85254L156.817 5.85588Z" fill="#00B0AD"/>
<path fill-rule="evenodd" clip-rule="evenodd" d="M96.9725 19.1846C95.4927 19.0366 94.2278 17.7735 94.4008 15.9728C94.665 13.163 95.7962 12.3249 96.1883 11.9374C96.6364 11.4956 97.1907 11.2724 97.8445 11.2724C98.8302 11.2724 99.3067 11.8879 99.2591 13.0972C99.2499 13.4074 99.2006 13.7437 99.132 14.104L99.0927 14.2661H95.1926C95.1926 14.2661 95.0036 14.77 94.8799 15.3415C94.7628 15.8786 94.7578 16.1539 94.7578 16.1539L102.195 16.1823C102.417 15.3295 102.549 14.518 102.574 13.7643C102.631 12.3467 102.327 11.2354 101.682 10.4529C100.992 9.61749 99.9379 9.19629 98.5576 9.19629C96.7334 9.19629 95.1265 9.74155 93.7855 10.8246C92.4378 11.9064 91.539 13.3703 91.1018 15.1788C90.9722 15.7143 90.8995 16.2324 90.8794 16.7069C90.8284 18.0837 91.3493 19.4638 92.2505 20.3062C93.166 21.1607 94.2988 21.737 95.9575 21.737C97.6196 21.737 99.6838 21.2668 101.674 19.8001L100.238 18.216C98.6956 19.1813 97.7517 19.2657 96.9725 19.1846Z" fill="#00B0AD"/>
<path fill-rule="evenodd" clip-rule="evenodd" d="M136.016 9.1963C135.003 9.19471 133.789 9.35716 132.471 9.67201L132.096 11.9269C133.415 11.4725 134.355 11.3872 134.967 11.3872C136.269 11.3883 136.802 11.716 136.811 12.4425C136.811 12.5586 136.611 13.7578 136.593 13.8701C136.361 15.2711 135.757 18.9402 135.757 18.9402C135.73 19.0963 135.532 19.1001 134.468 19.0985C133.739 19.0963 133.192 18.8982 132.89 18.5237C132.657 18.235 132.575 17.8445 132.645 17.3955C132.767 16.6353 133.165 16.0648 133.829 15.6909C134.462 15.3324 135.298 15.2812 136.229 15.2668L136.571 13.2618C136.423 13.2533 136.007 13.2432 135.869 13.2432C134.306 13.2432 132.836 13.608 131.701 14.2883C131.294 14.5334 130.928 14.8173 130.619 15.1401C129.756 16.0408 129.303 17.1973 129.338 18.4049C129.371 19.4287 129.949 20.0349 130.682 20.3919C131.569 20.8228 132.677 20.8995 133.329 20.8995C133.645 20.8995 133.895 20.9027 133.907 20.8995H138.74L139.415 16.9853C139.415 16.9853 140.08 12.76 140.156 12.2913C140.51 10.079 138.953 9.20274 136.016 9.1963Z" fill="#00B0AD"/>
<path d="M56.1651 25.2933C57.7931 25.2933 59.2158 25.616 60.4331 26.2613C61.6505 26.9066 62.5891 27.816 63.2491 28.9893C63.9238 30.148 64.2611 31.49 64.2611 33.0153C64.2611 34.526 63.9238 35.868 63.2491 37.0413C62.5891 38.2146 61.6431 39.124 60.4111 39.7693C59.1938 40.4146 57.7785 40.7373 56.1651 40.7373H50.3791V25.2933H56.1651ZM55.9231 37.4813C57.3458 37.4813 58.4531 37.0926 59.2451 36.3153C60.0371 35.538 60.4331 34.438 60.4331 33.0153C60.4331 31.5926 60.0371 30.4853 59.2451 29.6933C58.4531 28.9013 57.3458 28.5053 55.9231 28.5053H54.1411V37.4813H55.9231ZM83.8535 25.2933V40.7373H80.0915V31.4753L76.6375 40.7373H73.6015L70.1255 31.4533V40.7373H66.3635V25.2933H70.8075L75.1415 35.9853L79.4315 25.2933H83.8535ZM92.1468 40.8913C91.0175 40.8913 90.0055 40.708 89.1108 40.3413C88.2162 39.9746 87.4975 39.432 86.9548 38.7133C86.4268 37.9946 86.1482 37.1293 86.1188 36.1173H90.1228C90.1815 36.6893 90.3795 37.1293 90.7168 37.4373C91.0542 37.7306 91.4942 37.8773 92.0368 37.8773C92.5942 37.8773 93.0342 37.7526 93.3568 37.5033C93.6795 37.2393 93.8408 36.88 93.8408 36.4253C93.8408 36.044 93.7088 35.7286 93.4448 35.4793C93.1955 35.23 92.8802 35.0246 92.4988 34.8633C92.1322 34.702 91.6042 34.5186 90.9148 34.3133C89.9175 34.0053 89.1035 33.6973 88.4728 33.3893C87.8422 33.0813 87.2995 32.6266 86.8448 32.0253C86.3902 31.424 86.1628 30.6393 86.1628 29.6713C86.1628 28.234 86.6835 27.112 87.7248 26.3053C88.7662 25.484 90.1228 25.0733 91.7948 25.0733C93.4962 25.0733 94.8675 25.484 95.9088 26.3053C96.9502 27.112 97.5075 28.2413 97.5808 29.6933H93.5108C93.4815 29.1946 93.2982 28.806 92.9608 28.5273C92.6235 28.234 92.1908 28.0873 91.6628 28.0873C91.2082 28.0873 90.8415 28.212 90.5628 28.4613C90.2842 28.696 90.1448 29.0406 90.1448 29.4953C90.1448 29.994 90.3795 30.3826 90.8488 30.6613C91.3182 30.94 92.0515 31.2406 93.0488 31.5633C94.0462 31.9006 94.8528 32.2233 95.4688 32.5313C96.0995 32.8393 96.6422 33.2866 97.0968 33.8733C97.5515 34.46 97.7788 35.2153 97.7788 36.1393C97.7788 37.0193 97.5515 37.8186 97.0968 38.5373C96.6568 39.256 96.0115 39.828 95.1608 40.2533C94.3102 40.6786 93.3055 40.8913 92.1468 40.8913Z" fill="#4A176D"/>
</svg>
