<svg width="167" height="49" viewBox="0 0 167 49" fill="none" xmlns="http://www.w3.org/2000/svg">
<path fill-rule="evenodd" clip-rule="evenodd" d="M23.4991 27.2602C22.7021 27.695 22.601 27.7604 22.1513 27.7604C21.9547 27.7604 21.5991 27.5472 21.2166 27.28C21.2166 27.28 20.9637 27.1092 20.2327 26.6259C19.7493 26.3102 19.5924 26.1106 19.1695 26.1106C18.7391 26.1106 18.5135 26.2752 16.6593 27.28C15.424 27.947 15.736 28.1573 16.3806 28.5864C18.2316 29.8104 17.1925 29.122 19.746 30.8316C20.5512 31.3734 21.0281 31.7698 21.4679 31.7698C21.9066 31.7698 22.7086 31.37 25.2981 29.9723C32.3707 26.1529 38.5057 22.8432 43.861 19.9523L44.5543 15.8848L23.4991 27.2602Z" fill="#4A176D"/>
<path fill-rule="evenodd" clip-rule="evenodd" d="M20.52 44.1141C19.2827 44.7724 19.2032 44.6407 18.3114 44.0505C15.7111 42.3412 6.93323 36.6063 5.02003 35.3264C4.53436 35.0001 3.93468 34.7306 3.63588 34.7425C3.23866 34.7544 3.10459 34.8838 2.08931 35.4302C-0.132138 36.6163 0.0209178 36.6231 0.536085 36.9539C1.03177 37.2649 14.2561 45.9623 17.4502 48.0574C17.8586 48.3293 18.1896 48.4916 18.5885 48.4916C19.0012 48.4916 19.6138 48.3293 20.1467 48.0411C28.3447 43.6618 35.3464 39.9283 41.3857 36.7026L42.0911 32.6072C35.9726 35.8718 28.8654 39.6677 20.5204 44.1153L20.52 44.1141Z" fill="#4A176D"/>
<path fill-rule="evenodd" clip-rule="evenodd" d="M21.2037 35.6659C20.4897 36.0441 20.3397 36.0978 19.8819 36.0978C19.619 36.0978 19.133 35.7686 18.5196 35.3712C16.3612 33.9864 12.7883 31.7734 12.5361 31.6024C12.5361 31.6024 12.3074 31.4499 11.689 31.0457C11.1946 30.7239 10.8412 30.4445 10.4047 30.4445C9.95697 30.4445 9.95082 30.4609 9.01885 30.9514C6.68015 32.1736 6.53695 32.2685 6.98462 32.5575C9.7907 34.3776 12.5659 36.1784 17.7888 39.5273C18.7303 40.1308 18.7551 40.1308 19.1551 40.1308C19.5843 40.1308 19.7719 40.1257 20.4679 39.7576C28.8728 35.3334 36.0321 31.5595 42.1979 28.3172L42.9119 24.2463C36.7537 27.4845 29.5976 31.2505 21.2041 35.6667L21.2037 35.6659Z" fill="#4A176D"/>
<path fill-rule="evenodd" clip-rule="evenodd" d="M23.422 19.9065C23.6159 19.9065 23.9724 20.1212 24.359 20.3896C24.359 20.3896 24.6109 20.5603 25.3459 21.0406C25.8299 21.3599 25.9904 21.5588 26.4077 21.5588C26.8409 21.5588 27.0687 21.395 28.9268 20.3896C30.1651 19.7178 29.854 19.5087 29.2072 19.0815C27.3513 17.8535 28.3907 18.5474 25.8349 16.8273C25.0233 16.2893 24.5501 15.8853 24.1071 15.8853C23.6674 15.8853 22.8634 16.2893 20.2676 17.6873C13.2074 21.4972 7.08214 24.807 1.7334 27.6956L1.03516 31.77L22.0697 20.4057C22.872 19.9723 22.9746 19.9065 23.422 19.9065Z" fill="#00B0AD"/>
<path fill-rule="evenodd" clip-rule="evenodd" d="M27.2461 4.4471C29.8469 6.16425 38.6456 11.915 40.5629 13.1938C41.0495 13.5239 41.6485 13.7924 41.9472 13.7855C42.3457 13.7753 42.4789 13.6399 43.4998 13.0954C45.7218 11.9022 45.5702 11.8988 45.0524 11.5688C44.5576 11.2553 31.3086 2.53364 28.1103 0.430153C27.7019 0.163296 27.3708 0 26.9673 0C26.5528 0 25.9437 0.163296 25.408 0.446648C17.2265 4.82041 10.2371 8.55469 4.20685 11.7767L3.49854 15.8848C9.61091 12.6234 16.707 8.83109 25.0356 4.38667C26.2699 3.72377 26.3499 3.85877 27.2461 4.4471Z" fill="#00B0AD"/>
<path fill-rule="evenodd" clip-rule="evenodd" d="M24.8598 11.5636C25.1203 11.5636 25.6083 11.8952 26.2235 12.289C28.3869 13.6805 31.9663 15.8968 32.2168 16.0694C32.2168 16.0694 32.4459 16.225 33.0728 16.6296C33.5624 16.951 33.9136 17.2345 34.3504 17.2345C34.799 17.2345 34.809 17.213 35.7456 16.7224C38.0818 15.4957 38.2315 15.4029 37.7852 15.1143C34.9672 13.2878 32.1876 11.4873 26.9522 8.12561C26.014 7.52466 25.9876 7.52466 25.5868 7.52466C25.1563 7.52466 24.9683 7.53034 24.2709 7.89812C15.8841 12.3128 8.7338 16.0824 2.57298 19.3302L1.85596 23.4099C8.01087 20.1671 15.1588 16.4082 23.5326 11.9987C24.2496 11.6191 24.3966 11.5636 24.8598 11.5636Z" fill="#00B0AD"/>
<path fill-rule="evenodd" clip-rule="evenodd" d="M60.2123 12.1066H54.3302L55.6361 4.17969H51.5823L48.7139 21.7324L52.771 21.7369L53.7479 15.7923H59.6333L58.6508 21.7291H62.5762L65.4348 4.17969H61.5166L60.2123 12.1066Z" fill="#00B0AD"/>
<path fill-rule="evenodd" clip-rule="evenodd" d="M66.6183 8.99976L70.0512 11.0925L65.8788 13.3471L64.5991 20.9008H68.7259L71.2875 5.85205H67.155L66.6183 8.99976Z" fill="#00B0AD"/>
<path fill-rule="evenodd" clip-rule="evenodd" d="M80.9731 10.1963C80.2652 9.3927 78.9597 8.73975 77.3767 8.73975C76.0685 8.73975 75.3781 9.1418 75.3426 9.1418L75.0013 11.3174C75.0079 11.3174 75.6906 11.1388 76.2468 11.2003C78.7612 11.4815 78.4564 14.2652 78.3174 15.1393C78.048 16.8299 77.1166 18.5916 75.3798 19.2233C74.2483 19.6416 73.5884 19.44 73.5884 19.44L75.7266 5.85598L72.055 5.85205L69.6152 21.3623C69.6234 21.349 72.381 21.7465 74.4037 21.7365C76.4038 21.728 78.235 21.1608 79.667 19.8907C80.9436 18.7534 81.7168 17.056 82.0462 14.9242C82.1258 14.3894 82.1659 13.8809 82.1536 13.4055C82.1117 12.042 81.7299 11.0548 80.9731 10.1963Z" fill="#00B0AD"/>
<path fill-rule="evenodd" clip-rule="evenodd" d="M85.4834 10.2238C84.797 10.8463 84.5596 12.4251 84.3547 13.6813L82.9937 21.7372H86.8528L88.2816 13.5352C88.448 12.5135 88.9856 12.0225 89.8066 12.0225H91.1476L92.1901 9.19653C88.0651 9.19653 86.3913 9.3986 85.4834 10.2238Z" fill="#00B0AD"/>
<path fill-rule="evenodd" clip-rule="evenodd" d="M109.378 11.6376L109.745 9.08429H107.921L108.378 5.85181L104.955 7.01575L104.656 9.08429H103.421L103.057 11.6376H104.288L103.596 16.4127C103.49 17.087 103.396 17.7752 103.313 18.4623C103.122 19.9235 103.734 20.7367 104.004 21.0177C104.474 21.5275 105.061 21.7366 106.028 21.7366L106.13 21.7327C107.153 21.7193 107.792 21.4205 107.976 21.2938L108.326 18.9118C108.144 18.9693 107.823 19.039 107.436 19.039C106.921 19.039 106.636 18.7278 106.622 18.1371C106.622 18.0183 106.641 17.8684 106.665 17.6949L107.558 11.6376H109.378Z" fill="#00B0AD"/>
<path fill-rule="evenodd" clip-rule="evenodd" d="M125.781 13.6851L125.788 13.6509C125.911 13.6509 126.727 13.3276 127.6 12.5208C128.477 11.7063 128.799 11.1864 128.954 9.9922C129.104 8.73713 128.47 7.28868 127.379 6.63348C126.005 5.82226 125.057 5.85219 123.297 5.85219L116.483 5.85596L113.927 20.9006L117.923 20.8973L120.092 8.14429H122.597C124.105 8.14429 124.968 8.88043 124.908 10.1159C124.853 11.1379 124.325 11.6144 123.809 11.9415C123.253 12.305 122.673 12.4989 121.204 12.5006L119.483 12.5022L119.114 14.6716H120.633C123.371 14.7444 123.892 15.9658 123.647 16.8813C123.378 17.882 122.464 18.5417 119.914 18.6259H118.442L118.056 20.8969H121.378C122.581 20.8969 124.515 20.8719 125.592 20.3715C127.614 19.4294 128.074 18.0418 128.207 16.9959C128.287 16.3782 128.224 15.0552 127.361 14.3739C126.528 13.7164 125.781 13.6851 125.781 13.6851Z" fill="#00B0AD"/>
<path fill-rule="evenodd" clip-rule="evenodd" d="M147.668 10.0322C145.674 10.0322 143.909 10.3512 142.41 10.972L140.681 21.7369L144.281 21.7338L145.781 12.5314L145.902 12.5003C146.313 12.392 146.768 12.3325 147.221 12.3325C148.187 12.3325 148.69 12.7244 148.717 13.5055C148.717 13.6326 148.706 13.7628 148.676 13.9033L147.398 21.725L151.039 21.7228L152.328 13.8845C152.373 13.5908 152.39 13.3044 152.384 13.0332C152.331 11.0127 150.785 10.0322 147.668 10.0322Z" fill="#00B0AD"/>
<path fill-rule="evenodd" clip-rule="evenodd" d="M156.455 5.8554L154.053 20.9008H157.663L158.613 15.1229L161.093 20.9008L165.326 20.9003L162.142 14.4127L166.594 9.02058H162.748L158.758 14.1497L160.07 5.85205L156.455 5.8554Z" fill="#00B0AD"/>
<path fill-rule="evenodd" clip-rule="evenodd" d="M96.6112 19.1846C95.1314 19.0366 93.8664 17.7735 94.0395 15.9728C94.3037 13.163 95.4349 12.3249 95.827 11.9374C96.2751 11.4956 96.8294 11.2724 97.4832 11.2724C98.4689 11.2724 98.9454 11.8879 98.8977 13.0972C98.8886 13.4074 98.8392 13.7437 98.7707 14.104L98.7314 14.2661H94.8312C94.8312 14.2661 94.6423 14.77 94.5186 15.3415C94.4015 15.8786 94.3965 16.1539 94.3965 16.1539L101.834 16.1823C102.055 15.3295 102.188 14.518 102.213 13.7643C102.27 12.3467 101.966 11.2354 101.321 10.4529C100.631 9.61749 99.5766 9.19629 98.1963 9.19629C96.3721 9.19629 94.7652 9.74155 93.4242 10.8246C92.0765 11.9064 91.1777 13.3703 90.7405 15.1788C90.6109 15.7143 90.5381 16.2324 90.5181 16.7069C90.4671 18.0837 90.9879 19.4638 91.8892 20.3062C92.8047 21.1607 93.9375 21.737 95.5962 21.737C97.2583 21.737 99.3225 21.2668 101.312 19.8001L99.8768 18.216C98.3343 19.1813 97.3904 19.2657 96.6112 19.1846Z" fill="#00B0AD"/>
<path fill-rule="evenodd" clip-rule="evenodd" d="M135.654 9.1963C134.641 9.19471 133.427 9.35716 132.11 9.67201L131.734 11.9269C133.054 11.4725 133.994 11.3872 134.605 11.3872C135.908 11.3883 136.44 11.716 136.45 12.4425C136.45 12.5586 136.25 13.7578 136.231 13.8701C136 15.2711 135.395 18.9402 135.395 18.9402C135.369 19.0963 135.17 19.1001 134.107 19.0985C133.378 19.0963 132.83 18.8982 132.529 18.5237C132.295 18.235 132.214 17.8445 132.284 17.3955C132.406 16.6353 132.804 16.0648 133.467 15.6909C134.1 15.3324 134.937 15.2812 135.868 15.2668L136.21 13.2618C136.062 13.2533 135.646 13.2432 135.507 13.2432C133.945 13.2432 132.475 13.608 131.34 14.2883C130.932 14.5334 130.567 14.8173 130.258 15.1401C129.395 16.0408 128.942 17.1973 128.977 18.4049C129.01 19.4287 129.588 20.0349 130.321 20.3919C131.208 20.8228 132.316 20.8995 132.967 20.8995C133.283 20.8995 133.533 20.9027 133.546 20.8995H138.379L139.054 16.9853C139.054 16.9853 139.718 12.76 139.795 12.2913C140.148 10.079 138.592 9.20274 135.654 9.1963Z" fill="#00B0AD"/>
<path d="M55.8038 25.2933C57.4318 25.2933 58.8545 25.616 60.0718 26.2613C61.2891 26.9066 62.2278 27.816 62.8878 28.9893C63.5625 30.148 63.8998 31.49 63.8998 33.0153C63.8998 34.526 63.5625 35.868 62.8878 37.0413C62.2278 38.2146 61.2818 39.124 60.0498 39.7693C58.8325 40.4146 57.4171 40.7373 55.8038 40.7373H50.0178V25.2933H55.8038ZM55.5618 37.4813C56.9845 37.4813 58.0918 37.0926 58.8838 36.3153C59.6758 35.538 60.0718 34.438 60.0718 33.0153C60.0718 31.5926 59.6758 30.4853 58.8838 29.6933C58.0918 28.9013 56.9845 28.5053 55.5618 28.5053H53.7798V37.4813H55.5618ZM83.4922 25.2933V40.7373H79.7302V31.4753L76.2762 40.7373H73.2402L69.7642 31.4533V40.7373H66.0022V25.2933H70.4462L74.7802 35.9853L79.0702 25.2933H83.4922ZM91.7855 40.8913C90.6562 40.8913 89.6442 40.708 88.7495 40.3413C87.8548 39.9746 87.1362 39.432 86.5935 38.7133C86.0655 37.9946 85.7868 37.1293 85.7575 36.1173H89.7615C89.8202 36.6893 90.0182 37.1293 90.3555 37.4373C90.6928 37.7306 91.1328 37.8773 91.6755 37.8773C92.2328 37.8773 92.6728 37.7526 92.9955 37.5033C93.3182 37.2393 93.4795 36.88 93.4795 36.4253C93.4795 36.044 93.3475 35.7286 93.0835 35.4793C92.8342 35.23 92.5188 35.0246 92.1375 34.8633C91.7708 34.702 91.2428 34.5186 90.5535 34.3133C89.5562 34.0053 88.7422 33.6973 88.1115 33.3893C87.4808 33.0813 86.9382 32.6266 86.4835 32.0253C86.0288 31.424 85.8015 30.6393 85.8015 29.6713C85.8015 28.234 86.3222 27.112 87.3635 26.3053C88.4048 25.484 89.7615 25.0733 91.4335 25.0733C93.1348 25.0733 94.5062 25.484 95.5475 26.3053C96.5888 27.112 97.1462 28.2413 97.2195 29.6933H93.1495C93.1202 29.1946 92.9368 28.806 92.5995 28.5273C92.2622 28.234 91.8295 28.0873 91.3015 28.0873C90.8468 28.0873 90.4802 28.212 90.2015 28.4613C89.9228 28.696 89.7835 29.0406 89.7835 29.4953C89.7835 29.994 90.0182 30.3826 90.4875 30.6613C90.9568 30.94 91.6902 31.2406 92.6875 31.5633C93.6848 31.9006 94.4915 32.2233 95.1075 32.5313C95.7382 32.8393 96.2808 33.2866 96.7355 33.8733C97.1902 34.46 97.4175 35.2153 97.4175 36.1393C97.4175 37.0193 97.1902 37.8186 96.7355 38.5373C96.2955 39.256 95.6502 39.828 94.7995 40.2533C93.9488 40.6786 92.9442 40.8913 91.7855 40.8913Z" fill="#4A176D"/>
</svg>
