<svg width="282" height="225" viewBox="0 0 282 225" fill="none" xmlns="http://www.w3.org/2000/svg">
<path fill-rule="evenodd" clip-rule="evenodd" d="M254.987 161.026C258.202 156.487 265.329 158.397 265.843 163.935L266.557 171.615C266.637 172.484 267.094 173.275 267.807 173.78L274.101 178.237C278.64 181.452 276.73 188.579 271.192 189.094L263.512 189.807L263.235 186.82L270.914 186.106C273.68 185.85 274.634 182.291 272.367 180.685L266.073 176.228C264.646 175.217 263.731 173.633 263.57 171.892L262.856 164.213C262.599 161.447 259.041 160.493 257.435 162.76L252.978 169.054C251.967 170.481 250.383 171.396 248.642 171.557L240.963 172.271C238.197 172.528 237.243 176.086 239.51 177.692L245.804 182.149C247.231 183.16 248.146 184.744 248.307 186.485L249.021 194.164C249.277 196.93 252.836 197.884 254.442 195.617L256.89 197.351C253.675 201.89 246.548 199.98 246.033 194.442L245.32 186.762C245.239 185.893 244.783 185.102 244.07 184.597L237.776 180.14C233.237 176.925 235.147 169.798 240.685 169.283L248.365 168.57C249.234 168.49 250.025 168.033 250.53 167.32L254.987 161.026Z" fill="#667085"/>
<path fill-rule="evenodd" clip-rule="evenodd" d="M30.1487 26.4245C29.0851 20.1984 36.341 16.0092 41.2012 20.0433L48.2084 25.8596C49.0627 26.5686 50.1842 26.8691 51.2785 26.6822L60.2551 25.1488C66.4812 24.0852 70.6704 31.3411 66.6363 36.2013L60.82 43.2085C60.1109 44.0628 59.8105 45.1843 59.9974 46.2787L61.5308 55.2552C62.5944 61.4813 55.3385 65.6705 50.4783 61.6364L43.471 55.8201C42.6168 55.1111 41.4953 54.8106 40.4009 54.9975L31.4243 56.5309C25.1983 57.5945 21.0091 50.3386 25.0432 45.4784L30.8594 38.4712L33.1679 40.3872L27.3516 47.3945C25.0962 50.1117 27.4383 54.1684 30.9192 53.5738L39.8958 52.0403C41.8532 51.706 43.8591 52.2434 45.3871 53.5117L52.3944 59.328C55.1116 61.5834 59.1683 59.2413 58.5736 55.7604L57.0402 46.7838C56.7059 44.8263 57.2433 42.8205 58.5116 41.2925L64.3279 34.2852C66.5833 31.568 64.2412 27.5113 60.7603 28.1059L51.7837 29.6394C49.8262 29.9737 47.8204 29.4363 46.2924 28.168L39.2851 22.3517C36.5679 20.0963 32.5112 22.4384 33.1058 25.9193L30.1487 26.4245Z" fill="#667085"/>
<path d="M28.771 27.8145C28.302 25.0693 31.5013 23.2222 33.6442 25.0009L45.2956 34.672C45.9693 35.2312 46.8537 35.4682 47.7168 35.3208L62.6428 32.7711C65.388 32.3021 67.235 35.5014 65.4563 37.6443L55.7853 49.2957C55.226 49.9695 54.9891 50.8539 55.1365 51.7169L57.6862 66.6429C58.1551 69.3881 54.9559 71.2352 52.813 69.4565L41.1616 59.7854C40.4878 59.2262 39.6034 58.9892 38.7403 59.1366L23.8144 61.6863C21.0692 62.1552 19.2221 58.956 21.0008 56.8131L30.6719 45.1617C31.2311 44.4879 31.4681 43.6035 31.3207 42.7405L28.771 27.8145Z" fill="url(#paint0_linear_154_2726)"/>
<rect x="27.5493" y="222.299" width="240" height="2.5" rx="1.25" fill="#667085"/>
<path fill-rule="evenodd" clip-rule="evenodd" d="M88.602 39.5823C95.456 24.5 109.973 12.531 131.661 11.6752C146.244 11.0998 157.198 16.8378 164.932 24.2244C172.639 31.585 177.167 40.5948 178.988 46.6977L178.993 46.7146L190.581 89.9582L190.063 90.469C186.921 93.5692 182.915 95.0878 179.258 95.7491C175.605 96.4098 172.199 96.2339 170.131 95.8535L169.354 95.7106L157.736 52.3518L157.726 52.2784C157.503 50.7356 156.445 48.2802 154.537 45.5786C152.652 42.9076 150.014 40.1068 146.769 37.8497C140.315 33.3607 131.493 31.0244 121.236 36.0954C104.77 44.2363 104.489 59.5666 106.372 66.1709L106.375 66.1805L117.956 109.402L117.459 109.911C110.351 117.188 101.247 116.506 97.4992 115.22L96.8697 115.004L85.3032 71.837C85.1245 71.1702 85.5202 70.4848 86.187 70.3061C86.8539 70.1274 87.5393 70.5231 87.718 71.19L98.9329 113.045C102.306 113.953 109.393 114.153 115.169 108.659L103.965 66.8467C101.874 59.4993 102.237 42.6997 120.128 33.8543C131.35 28.3063 141.142 30.8903 148.196 35.7974C151.706 38.2383 154.545 41.2546 156.58 44.1367C158.568 46.9537 159.866 49.7533 160.189 51.8448L171.354 93.5148C173.189 93.7546 175.91 93.814 178.814 93.289C181.94 92.7236 185.19 91.4975 187.784 89.1805L176.588 47.3958C174.871 41.6551 170.553 33.0493 163.205 26.0323C155.878 19.0344 145.559 13.6287 131.759 14.1733C111.069 14.9897 97.3637 26.3446 90.878 40.6166C90.5924 41.2451 89.8514 41.523 89.2229 41.2374C88.5944 40.9518 88.3164 40.2108 88.602 39.5823Z" fill="#667085"/>
<path fill-rule="evenodd" clip-rule="evenodd" d="M168.099 84.2963L113.283 98.9842L113.93 101.399L168.746 86.7111L168.099 84.2963ZM187.099 81.7935L190.48 80.8876C194.481 79.8156 198.593 82.1899 199.665 86.1909L199.859 86.9154C200.931 90.9164 198.557 95.0289 194.556 96.101L126.579 114.315L95.5487 122.63C91.5477 123.702 87.4352 121.328 86.3631 117.327L86.169 116.602C85.097 112.601 87.4713 108.489 91.4723 107.417L95.819 106.252L95.1719 103.837L90.8253 105.002C85.4906 106.431 82.3248 111.915 83.7542 117.249L83.9483 117.974L103.619 191.384C106.477 202.053 117.444 208.385 128.113 205.526L207.802 184.174C218.472 181.315 224.803 170.348 221.944 159.679L202.274 86.2683L202.08 85.5439C200.651 80.2092 195.167 77.0434 189.833 78.4728L186.452 79.3787L187.099 81.7935ZM201.571 93.3046L219.53 160.326C222.031 169.661 216.491 179.257 207.155 181.759L127.466 203.111C118.131 205.613 108.535 200.073 106.033 190.737L88.0751 123.716C90.3824 125.247 93.3108 125.818 96.1958 125.045L127.226 116.73L195.203 98.5158C198.088 97.7428 200.339 95.7841 201.571 93.3046Z" fill="#667085"/>
<path d="M90.9662 178.339C65.6725 165.681 76.9141 136.24 85.6967 123.101C81.9988 126.895 73.7155 136.536 70.1655 144.752C65.728 155.022 49.9194 200.268 111.49 202.488C160.746 204.265 199.87 166.588 213.275 147.528L230.193 157.521C233.077 131.095 233.798 94.6956 233.798 79.7989C216.714 94.8991 182.305 111.813 167.236 118.382L183.599 131.983C168.9 156.133 122.583 194.161 90.9662 178.339Z" fill="url(#paint1_linear_154_2726)"/>
<path fill-rule="evenodd" clip-rule="evenodd" d="M87.5853 120.77C88.79 121.746 89.0525 123.479 88.1909 124.768C83.9758 131.074 79.2432 141.219 78.5455 151.112C78.1996 156.017 78.8536 160.728 80.922 164.877C82.9723 168.99 86.5135 172.756 92.3089 175.656C106.675 182.845 124.933 177.993 142.07 167.586C158.033 157.892 172.13 143.89 179.648 132.6L165.318 120.689C164.518 120.024 164.119 118.991 164.266 117.96C164.412 116.929 165.083 116.048 166.037 115.632C173.495 112.381 185.782 106.55 198.316 99.6606C210.895 92.7471 223.528 84.8728 231.812 77.5511C232.696 76.7697 233.956 76.5791 235.031 77.064C236.107 77.5488 236.798 78.6191 236.798 79.7989C236.798 94.7284 236.078 131.257 233.175 157.846C233.065 158.859 232.447 159.747 231.536 160.203C230.625 160.659 229.545 160.622 228.667 160.104L214.097 151.498C206.821 161.192 194.097 174.401 177.475 185.329C159.519 197.133 136.815 206.404 111.382 205.486C95.6503 204.919 84.4941 201.595 76.7755 196.474C68.9864 191.307 64.9211 184.457 63.1628 177.36C59.7189 163.461 65.1572 148.78 67.4116 143.562C71.1881 134.822 79.7944 124.858 83.5486 121.007C84.6308 119.897 86.3807 119.794 87.5853 120.77ZM213.275 147.528L230.193 157.521C230.311 156.443 230.425 155.348 230.535 154.239C232.919 130.331 233.675 99.7032 233.784 83.761C233.794 82.314 233.798 80.988 233.798 79.7989C232.848 80.6391 231.844 81.4849 230.792 82.3342C214.132 95.7903 185.594 110.13 170.296 117.025C169.206 117.516 168.183 117.97 167.236 118.382L183.599 131.984C168.9 156.133 122.584 194.161 90.9663 178.339C71.9331 168.814 73.5876 149.786 79.3148 135.352C81.1986 130.604 83.523 126.353 85.6968 123.101C83.5974 125.255 80.0201 129.293 76.6701 133.886C74.1193 137.382 71.7002 141.2 70.1656 144.752C65.7281 155.022 49.9195 200.268 111.49 202.488C160.746 204.265 199.87 166.588 213.275 147.528Z" fill="#667085"/>
<defs>
<linearGradient id="paint0_linear_154_2726" x1="27.4058" y1="19.8229" x2="59.0513" y2="74.6345" gradientUnits="userSpaceOnUse">
<stop stop-color="#26AFAD"/>
<stop offset="1" stop-color="#4A176D"/>
</linearGradient>
<linearGradient id="paint1_linear_154_2726" x1="149.423" y1="79.7989" x2="149.423" y2="202.549" gradientUnits="userSpaceOnUse">
<stop stop-color="#26AFAD"/>
<stop offset="1" stop-color="#4A176D"/>
</linearGradient>
</defs>
</svg>
