<svg width="19" height="23" viewBox="0 0 19 23" fill="none" xmlns="http://www.w3.org/2000/svg">
<path fill-rule="evenodd" clip-rule="evenodd" d="M3.4063 6.87706C3.4063 4.35325 5.90855 1.54079 9.4986 1.54079C13.0886 1.54079 15.5909 4.35325 15.5909 6.87706C15.5909 9.0126 16.1836 9.9997 16.7074 10.8708C17.1275 11.5703 17.4593 12.1229 17.4624 13.257C17.2919 15.2158 15.973 16.279 9.4986 16.279C2.98824 16.279 1.70938 15.261 1.53784 13.3237C1.53784 12.1229 1.86962 11.5703 2.28975 10.8708C2.81361 9.9997 3.4063 9.0126 3.4063 6.87706ZM1.37038e-05 13.3895C0.354404 17.4808 4.69531 17.8197 9.4985 17.8197C14.3016 17.8197 18.6415 17.4808 19 13.3237C19 11.6966 18.4833 10.8359 18.0272 10.0778C17.566 9.3094 17.1315 8.58528 17.1315 6.87706C17.1315 3.55614 14.0643 0 9.4985 0C4.93259 0 1.8654 3.55614 1.8654 6.87706C1.8654 8.58528 1.43089 9.3094 0.969684 10.0778C0.513614 10.8359 -0.0030663 11.6966 1.37038e-05 13.3895ZM6.37816 20.6548C7.20505 21.5762 8.2949 22.0836 9.4464 22.0846H9.4484C10.603 22.0846 11.6949 21.5772 12.5249 20.6558C12.8094 20.3405 12.7837 19.8526 12.4674 19.568C12.152 19.2835 11.6651 19.3092 11.3796 19.6245C10.8464 20.2182 10.1603 20.5439 9.4484 20.5439H9.4474C8.7386 20.5439 8.0556 20.2182 7.5235 19.6255C7.23895 19.3081 6.75206 19.2825 6.43568 19.568C6.11931 19.8515 6.09363 20.3394 6.37816 20.6548Z" fill="#667085"/>
</svg>
