<svg width="12" height="18" viewBox="0 0 12 18" fill="none" xmlns="http://www.w3.org/2000/svg">
<path d="M2.79171 4.41667C3.27794 4.41667 3.74425 4.22351 4.08807 3.8797C4.43189 3.53588 4.62504 3.06956 4.62504 2.58333C4.62504 2.0971 4.43189 1.63079 4.08807 1.28697C3.74425 0.943154 3.27794 0.75 2.79171 0.75C2.30548 0.75 1.83916 0.943154 1.49534 1.28697C1.15153 1.63079 0.958374 2.0971 0.958374 2.58333C0.958374 3.06956 1.15153 3.53588 1.49534 3.8797C1.83916 4.22351 2.30548 4.41667 2.79171 4.41667ZM2.79171 10.8333C3.27794 10.8333 3.74425 10.6402 4.08807 10.2964C4.43189 9.95255 4.62504 9.48623 4.62504 9C4.62504 8.51377 4.43189 8.04745 4.08807 7.70364C3.74425 7.35982 3.27794 7.16667 2.79171 7.16667C2.30548 7.16667 1.83916 7.35982 1.49534 7.70364C1.15153 8.04745 0.958374 8.51377 0.958374 9C0.958374 9.48623 1.15153 9.95255 1.49534 10.2964C1.83916 10.6402 2.30548 10.8333 2.79171 10.8333ZM4.62504 15.4167C4.62504 15.9029 4.43189 16.3692 4.08807 16.713C3.74425 17.0568 3.27794 17.25 2.79171 17.25C2.30548 17.25 1.83916 17.0568 1.49534 16.713C1.15153 16.3692 0.958374 15.9029 0.958374 15.4167C0.958374 14.9304 1.15153 14.4641 1.49534 14.1203C1.83916 13.7765 2.30548 13.5833 2.79171 13.5833C3.27794 13.5833 3.74425 13.7765 4.08807 14.1203C4.43189 14.4641 4.62504 14.9304 4.62504 15.4167ZM9.20837 4.41667C9.6946 4.41667 10.1609 4.22351 10.5047 3.8797C10.8486 3.53588 11.0417 3.06956 11.0417 2.58333C11.0417 2.0971 10.8486 1.63079 10.5047 1.28697C10.1609 0.943154 9.6946 0.75 9.20837 0.75C8.72214 0.75 8.25583 0.943154 7.91201 1.28697C7.56819 1.63079 7.37504 2.0971 7.37504 2.58333C7.37504 3.06956 7.56819 3.53588 7.91201 3.8797C8.25583 4.22351 8.72214 4.41667 9.20837 4.41667ZM11.0417 9C11.0417 9.48623 10.8486 9.95255 10.5047 10.2964C10.1609 10.6402 9.6946 10.8333 9.20837 10.8333C8.72214 10.8333 8.25583 10.6402 7.91201 10.2964C7.56819 9.95255 7.37504 9.48623 7.37504 9C7.37504 8.51377 7.56819 8.04745 7.91201 7.70364C8.25583 7.35982 8.72214 7.16667 9.20837 7.16667C9.6946 7.16667 10.1609 7.35982 10.5047 7.70364C10.8486 8.04745 11.0417 8.51377 11.0417 9ZM9.20837 17.25C9.6946 17.25 10.1609 17.0568 10.5047 16.713C10.8486 16.3692 11.0417 15.9029 11.0417 15.4167C11.0417 14.9304 10.8486 14.4641 10.5047 14.1203C10.1609 13.7765 9.6946 13.5833 9.20837 13.5833C8.72214 13.5833 8.25583 13.7765 7.91201 14.1203C7.56819 14.4641 7.37504 14.9304 7.37504 15.4167C7.37504 15.9029 7.56819 16.3692 7.91201 16.713C8.25583 17.0568 8.72214 17.25 9.20837 17.25Z" fill="#667085"/>
</svg>
