<svg width="19" height="21" viewBox="0 0 19 21" fill="none" xmlns="http://www.w3.org/2000/svg">
<path d="M2.09654 9.05833V8.4H1.39769V9.05833H2.09654ZM7.68731 9.05833V8.4H6.98846V9.05833H7.68731ZM7.68731 14.325H6.98846V14.9833H7.68731V14.325ZM17.4712 5.10833H18.17V4.83578L17.9659 4.64223L17.4712 5.10833ZM13.2781 1.15833L13.7729 0.692233L13.5674 0.5H13.2781V1.15833ZM2.09654 9.71667H3.49423V8.4H2.09654V9.71667ZM2.79538 14.9833V11.6917H1.39769V14.9833H2.79538ZM2.79538 11.6917V9.05833H1.39769V11.6917H2.79538ZM3.49423 11.0333H2.09654V12.35H3.49423V11.0333ZM4.19308 10.375C4.19308 10.5496 4.11945 10.7171 3.98839 10.8405C3.85733 10.964 3.67958 11.0333 3.49423 11.0333V12.35C4.05027 12.35 4.58353 12.1419 4.97671 11.7715C5.36988 11.4012 5.59077 10.8988 5.59077 10.375H4.19308ZM3.49423 9.71667C3.67958 9.71667 3.85733 9.78603 3.98839 9.90949C4.11945 10.033 4.19308 10.2004 4.19308 10.375H5.59077C5.59077 9.8512 5.36988 9.34885 4.97671 8.97846C4.58353 8.60808 4.05027 8.4 3.49423 8.4V9.71667ZM6.98846 9.05833V14.325H8.38615V9.05833H6.98846ZM7.68731 14.9833H9.085V13.6667H7.68731V14.9833ZM11.1815 13.0083V10.375H9.78385V13.0083H11.1815ZM9.085 8.4H7.68731V9.71667H9.085V8.4ZM11.1815 10.375C11.1815 9.8512 10.9607 9.34885 10.5675 8.97846C10.1743 8.60808 9.64104 8.4 9.085 8.4V9.71667C9.27035 9.71667 9.4481 9.78603 9.57916 9.90949C9.71022 10.033 9.78385 10.2004 9.78385 10.375H11.1815ZM9.085 14.9833C9.64104 14.9833 10.1743 14.7753 10.5675 14.4049C10.9607 14.0345 11.1815 13.5321 11.1815 13.0083H9.78385C9.78385 13.1829 9.71022 13.3504 9.57916 13.4738C9.4481 13.5973 9.27035 13.6667 9.085 13.6667V14.9833ZM12.5792 8.4V14.9833H13.9769V8.4H12.5792ZM13.2781 9.71667H16.7723V8.4H13.2781V9.71667ZM13.2781 12.35H15.3746V11.0333H13.2781V12.35ZM1.39769 7.08333V2.475H0V7.08333H1.39769ZM16.7723 5.10833V7.08333H18.17V5.10833H16.7723ZM2.09654 1.81667H13.2781V0.5H2.09654V1.81667ZM12.7833 1.62443L16.9764 5.57443L17.9659 4.64223L13.7729 0.692233L12.7833 1.62443ZM1.39769 2.475C1.39769 2.3004 1.47132 2.13295 1.60238 2.00949C1.73344 1.88603 1.91119 1.81667 2.09654 1.81667V0.5C1.5405 0.5 1.00724 0.70808 0.614062 1.07846C0.220885 1.44885 0 1.9512 0 2.475H1.39769ZM0 16.3V18.275H1.39769V16.3H0ZM2.09654 20.25H16.0735V18.9333H2.09654V20.25ZM18.17 18.275V16.3H16.7723V18.275H18.17ZM16.0735 20.25C16.6295 20.25 17.1628 20.0419 17.5559 19.6715C17.9491 19.3012 18.17 18.7988 18.17 18.275H16.7723C16.7723 18.4496 16.6987 18.6171 16.5676 18.7405C16.4366 18.864 16.2588 18.9333 16.0735 18.9333V20.25ZM0 18.275C0 18.7988 0.220885 19.3012 0.614062 19.6715C1.00724 20.0419 1.5405 20.25 2.09654 20.25V18.9333C1.91119 18.9333 1.73344 18.864 1.60238 18.7405C1.47132 18.6171 1.39769 18.4496 1.39769 18.275H0Z" fill="#00B0AD"/>
</svg>
