<svg width="19" height="20" viewBox="0 0 19 20" fill="none" xmlns="http://www.w3.org/2000/svg">
<path d="M2.09654 8.55833V7.9H1.39769V8.55833H2.09654ZM7.68731 8.55833V7.9H6.98846V8.55833H7.68731ZM7.68731 13.825H6.98846V14.4833H7.68731V13.825ZM17.4712 4.60833H18.17V4.33578L17.9659 4.14223L17.4712 4.60833ZM13.2781 0.658333L13.7729 0.192233L13.5674 0H13.2781V0.658333ZM2.09654 9.21667H3.49423V7.9H2.09654V9.21667ZM2.79538 14.4833V11.1917H1.39769V14.4833H2.79538ZM2.79538 11.1917V8.55833H1.39769V11.1917H2.79538ZM3.49423 10.5333H2.09654V11.85H3.49423V10.5333ZM4.19308 9.875C4.19308 10.0496 4.11945 10.2171 3.98839 10.3405C3.85733 10.464 3.67958 10.5333 3.49423 10.5333V11.85C4.05027 11.85 4.58353 11.6419 4.97671 11.2715C5.36988 10.9012 5.59077 10.3988 5.59077 9.875H4.19308ZM3.49423 9.21667C3.67958 9.21667 3.85733 9.28603 3.98839 9.40949C4.11945 9.53295 4.19308 9.7004 4.19308 9.875H5.59077C5.59077 9.3512 5.36988 8.84885 4.97671 8.47846C4.58353 8.10808 4.05027 7.9 3.49423 7.9V9.21667ZM6.98846 8.55833V13.825H8.38615V8.55833H6.98846ZM7.68731 14.4833H9.085V13.1667H7.68731V14.4833ZM11.1815 12.5083V9.875H9.78385V12.5083H11.1815ZM9.085 7.9H7.68731V9.21667H9.085V7.9ZM11.1815 9.875C11.1815 9.3512 10.9607 8.84885 10.5675 8.47846C10.1743 8.10808 9.64104 7.9 9.085 7.9V9.21667C9.27035 9.21667 9.4481 9.28603 9.57916 9.40949C9.71022 9.53295 9.78385 9.7004 9.78385 9.875H11.1815ZM9.085 14.4833C9.64104 14.4833 10.1743 14.2753 10.5675 13.9049C10.9607 13.5345 11.1815 13.0321 11.1815 12.5083H9.78385C9.78385 12.6829 9.71022 12.8504 9.57916 12.9738C9.4481 13.0973 9.27035 13.1667 9.085 13.1667V14.4833ZM12.5792 7.9V14.4833H13.9769V7.9H12.5792ZM13.2781 9.21667H16.7723V7.9H13.2781V9.21667ZM13.2781 11.85H15.3746V10.5333H13.2781V11.85ZM1.39769 6.58333V1.975H0V6.58333H1.39769ZM16.7723 4.60833V6.58333H18.17V4.60833H16.7723ZM2.09654 1.31667H13.2781V0H2.09654V1.31667ZM12.7833 1.12443L16.9764 5.07443L17.9659 4.14223L13.7729 0.192233L12.7833 1.12443ZM1.39769 1.975C1.39769 1.8004 1.47132 1.63295 1.60238 1.50949C1.73344 1.38603 1.91119 1.31667 2.09654 1.31667V0C1.5405 0 1.00724 0.20808 0.614062 0.578464C0.220885 0.948848 0 1.4512 0 1.975H1.39769ZM0 15.8V17.775H1.39769V15.8H0ZM2.09654 19.75H16.0735V18.4333H2.09654V19.75ZM18.17 17.775V15.8H16.7723V17.775H18.17ZM16.0735 19.75C16.6295 19.75 17.1628 19.5419 17.5559 19.1715C17.9491 18.8012 18.17 18.2988 18.17 17.775H16.7723C16.7723 17.9496 16.6987 18.1171 16.5676 18.2405C16.4366 18.364 16.2588 18.4333 16.0735 18.4333V19.75ZM0 17.775C0 18.2988 0.220885 18.8012 0.614062 19.1715C1.00724 19.5419 1.5405 19.75 2.09654 19.75V18.4333C1.91119 18.4333 1.73344 18.364 1.60238 18.2405C1.47132 18.1171 1.39769 17.9496 1.39769 17.775H0Z" fill="#00B0AD"/>
</svg>
