<svg width="16" height="14" viewBox="0 0 16 14" fill="none" xmlns="http://www.w3.org/2000/svg">
<path fill-rule="evenodd" clip-rule="evenodd" d="M11.3488 0.333252C13.6204 0.333252 15.3333 2.19103 15.3333 4.65462V9.35069C15.3333 10.6115 14.8886 11.7507 14.0802 12.5589C13.355 13.283 12.4143 13.6666 11.3597 13.6666H4.63827C3.58568 13.6666 2.64565 13.2837 1.91982 12.5589C1.11145 11.7507 0.666672 10.6115 0.666672 9.35069V4.65462C0.666672 2.19103 2.3796 0.333252 4.65123 0.333252H11.3488ZM11.3488 1.35889H4.65123C2.93557 1.35889 1.68993 2.74488 1.68993 4.65462V9.35069C1.68993 10.3374 2.02828 11.2187 2.64224 11.8321C3.1716 12.362 3.86264 12.6409 4.64032 12.6409H11.3488C11.3501 12.6396 11.3556 12.6409 11.3597 12.6409C12.1381 12.6409 12.8284 12.362 13.3578 11.8321C13.9724 11.2187 14.3101 10.3374 14.3101 9.35069V4.65462C14.3101 2.74488 13.0644 1.35889 11.3488 1.35889ZM12.4239 4.52388C12.6019 4.74337 12.5685 5.06611 12.3495 5.24525L9.31796 7.715C8.93458 8.01995 8.47616 8.17243 8.01842 8.17243C7.56205 8.17243 7.10704 8.02132 6.72639 7.7191L3.66686 5.24662C3.44652 5.06884 3.41241 4.74542 3.58909 4.52525C3.76714 4.30576 4.08912 4.27089 4.30878 4.44799L7.36559 6.91773C7.74965 7.22269 8.29061 7.22269 8.6774 6.915L11.7035 4.44936C11.9232 4.26953 12.2452 4.30371 12.4239 4.52388Z" fill="#667085"/>
</svg>
