<svg width="14" height="16" viewBox="0 0 14 16" fill="none" xmlns="http://www.w3.org/2000/svg">
<path fill-rule="evenodd" clip-rule="evenodd" d="M8.99706 1.84456L8.48543 1.30853C7.66025 0.449125 6.32273 0.453524 5.50454 1.3166L5.00411 1.84236C4.80324 2.04988 4.53868 2.16501 4.25802 2.16501H3.53712C2.37528 2.16574 1.43041 3.1564 1.43041 4.37365V5.12527C1.43041 5.41931 1.32052 5.69723 1.12385 5.90475L0.614321 6.44004L0.595423 6.45984C-0.207366 7.32511 -0.197567 8.71248 0.61992 9.56456L1.12315 10.0911C1.32052 10.2993 1.43041 10.5758 1.43041 10.8705V11.6265C1.43041 12.8438 2.37528 13.8345 3.53782 13.8345H4.25592C4.53728 13.8352 4.80184 13.9496 4.99991 14.1556L5.49685 14.6755C5.50244 14.6821 5.50804 14.688 5.51364 14.6939C5.92449 15.1206 6.46131 15.3333 6.99814 15.3333C7.53986 15.3333 8.08159 15.1162 8.49243 14.6829L8.99496 14.1564C9.19164 13.9518 9.4625 13.8345 9.73966 13.8345H10.4613C11.6231 13.8345 12.5687 12.8438 12.5687 11.6265V10.872C12.5687 10.5772 12.6779 10.3008 12.8745 10.0933L13.3876 9.55723C13.7844 9.13852 14.0021 8.58343 14 7.99313C13.9979 7.40284 13.7767 6.84921 13.3785 6.43491L12.8759 5.90768C12.6779 5.69869 12.5687 5.42078 12.5687 5.12673V4.37365C12.5687 3.15567 11.6231 2.16501 10.4606 2.16501H9.74106C9.4597 2.16501 9.19514 2.05061 8.99706 1.84456ZM5.74531 2.62184L6.24854 2.09314C6.65939 1.65977 7.33059 1.65757 7.75123 2.09388L8.25656 2.62404C8.65341 3.03688 9.18044 3.26493 9.74106 3.26493H10.4606C11.0443 3.26493 11.5188 3.76209 11.5188 4.37365V5.12673C11.5188 5.71409 11.7358 6.26552 12.1326 6.68423L12.6373 7.21366C12.8381 7.42337 12.9494 7.70129 12.9501 7.9968C12.9508 8.29305 12.8409 8.57243 12.6359 8.78801L12.1319 9.31671C11.7358 9.73248 11.5188 10.2846 11.5188 10.872V11.6265C11.5188 12.2374 11.0443 12.7345 10.4606 12.7345H9.73966C9.18744 12.7345 8.64571 12.9685 8.25376 13.3784L7.74843 13.9063C7.33829 14.3382 6.67338 14.3434 6.26044 13.921L6.24644 13.9049L5.74181 13.3776C5.34497 12.9633 4.81794 12.7353 4.25662 12.7345H3.53782C2.9541 12.7345 2.48026 12.2374 2.48026 11.6265V10.8705C2.48026 10.2832 2.26259 9.73101 1.86645 9.31451L1.36112 8.78508C0.947475 8.35464 0.945375 7.65142 1.35622 7.21805C1.35785 7.21634 1.35948 7.21472 1.36112 7.21309C1.36438 7.20983 1.36765 7.20657 1.37092 7.20266L1.86785 6.68129C2.26259 6.26479 2.48026 5.71263 2.48026 5.12527V4.37365C2.48026 3.76283 2.9548 3.26566 3.53782 3.26493H4.25802C4.81654 3.26493 5.34357 3.03761 5.74531 2.62184ZM6.458 5.93707C6.62867 5.87307 6.80867 5.8424 6.998 5.84507C7.18733 5.84507 7.36467 5.87174 7.53 5.92507C7.69533 5.97574 7.83533 6.04507 7.95 6.13307C8.11417 6.25906 8.3368 6.36776 8.53145 6.29752L8.63944 6.25855C8.89244 6.16725 9.02856 5.87993 8.86119 5.66937C8.81427 5.61033 8.76254 5.55423 8.706 5.50107C8.53 5.3304 8.32333 5.19307 8.086 5.08907C7.84867 4.98507 7.598 4.91707 7.334 4.88507V4.39907C7.334 4.21461 7.18446 4.06507 7 4.06507C6.81554 4.06507 6.666 4.21461 6.666 4.39907V4.88507C6.34333 4.92507 6.04867 5.01974 5.782 5.16907C5.518 5.31574 5.306 5.50774 5.146 5.74507C4.98867 5.9824 4.91 6.25307 4.91 6.55707C4.91 6.91707 5.00067 7.2104 5.182 7.43707C5.366 7.66374 5.61533 7.84107 5.93 7.96907C6.24467 8.09707 6.60067 8.19174 6.998 8.25307C7.17933 8.2824 7.35533 8.32507 7.526 8.38107C7.69667 8.43707 7.83667 8.51307 7.946 8.60907C8.05533 8.7024 8.11 8.8224 8.11 8.96907C8.11 9.11307 8.058 9.23974 7.954 9.34907C7.85 9.45574 7.71267 9.53974 7.542 9.60107C7.374 9.65974 7.19267 9.68907 6.998 9.68907C6.80867 9.68907 6.63133 9.6624 6.466 9.60907C6.30067 9.55573 6.16067 9.48507 6.046 9.39707C5.88209 9.27128 5.6592 9.16332 5.46522 9.23447L5.35704 9.27415C5.10587 9.36629 4.97181 9.65219 5.13651 9.86302C5.18189 9.92111 5.23172 9.97646 5.286 10.0291C5.462 10.1971 5.66867 10.3331 5.906 10.4371C6.14333 10.5411 6.39667 10.6091 6.666 10.6411V11.1231C6.666 11.3075 6.81554 11.4571 7 11.4571C7.18446 11.4571 7.334 11.3075 7.334 11.1231V10.6411C7.65667 10.6011 7.95 10.5064 8.214 10.3571C8.48067 10.2077 8.69267 10.0157 8.85 9.78107C9.00733 9.54374 9.086 9.27307 9.086 8.96907C9.086 8.63574 8.99 8.3544 8.798 8.12507C8.606 7.89307 8.35133 7.70774 8.034 7.56907C7.71667 7.4304 7.37133 7.33174 6.998 7.27307C6.79267 7.2384 6.606 7.20107 6.438 7.16107C6.27 7.1184 6.13533 7.05174 6.034 6.96107C5.93533 6.8704 5.886 6.73574 5.886 6.55707C5.886 6.4184 5.93933 6.29574 6.046 6.18907C6.15267 6.0824 6.29 5.9984 6.458 5.93707Z" fill="#667085"/>
</svg>
