<svg width="16" height="16" viewBox="0 0 16 16" fill="none" xmlns="http://www.w3.org/2000/svg">
<path fill-rule="evenodd" clip-rule="evenodd" d="M7.71541 0.666626C11.602 0.666626 14.7633 3.75826 14.7633 7.55911C14.7633 9.35233 14.0597 10.9879 12.9081 12.2153L15.174 14.4266C15.3861 14.634 15.3868 14.9695 15.1747 15.1769C15.0691 15.2816 14.9294 15.3333 14.7904 15.3333C14.6522 15.3333 14.5132 15.2816 14.4068 15.1783L12.1136 12.9419C10.9072 13.8867 9.37764 14.4523 7.71541 14.4523C3.82884 14.4523 0.666748 11.36 0.666748 7.55911C0.666748 3.75826 3.82884 0.666626 7.71541 0.666626ZM7.71541 1.72831C4.42739 1.72831 1.75238 4.34361 1.75238 7.55911C1.75238 10.7746 4.42739 13.3906 7.71541 13.3906C11.0027 13.3906 13.6777 10.7746 13.6777 7.55911C13.6777 4.34361 11.0027 1.72831 7.71541 1.72831Z" fill="#667085"/>
</svg>
