<svg width="19" height="15" viewBox="0 0 19 15" fill="none" xmlns="http://www.w3.org/2000/svg">
<path d="M1.66667 5.30067V11.9997V0.999674V5.30067ZM11.3622 14.0448C11.6922 14.0448 11.9746 13.9274 12.2092 13.6928C12.4439 13.4587 12.5612 13.1764 12.5612 12.8458C12.5612 12.5158 12.4439 12.2334 12.2092 11.9988C11.9746 11.7647 11.6922 11.6477 11.3622 11.6477C11.0322 11.6477 10.7499 11.7647 10.5152 11.9988C10.2806 12.2328 10.1632 12.5151 10.1632 12.8458C10.1632 13.1764 10.2806 13.4587 10.5152 13.6928C10.7499 13.9268 11.0322 14.0441 11.3622 14.0448ZM16.3333 6.49967C16.6633 6.49967 16.9457 6.38234 17.1803 6.14767C17.415 5.91362 17.5323 5.63129 17.5323 5.30067C17.5323 4.97067 17.415 4.68834 17.1803 4.45367C16.9463 4.21962 16.6639 4.10259 16.3333 4.10259C16.0027 4.10259 15.7204 4.21962 15.4863 4.45367C15.2517 4.68834 15.1343 4.97067 15.1343 5.30067C15.1343 5.63067 15.2517 5.91301 15.4863 6.14767C15.721 6.38234 16.0033 6.49967 16.3333 6.49967ZM8.33083 5.12467C8.46039 5.12467 8.56917 5.08067 8.65717 4.99267C8.74517 4.90467 8.78886 4.79559 8.78825 4.66542C8.78764 4.53526 8.74364 4.42648 8.65625 4.33909C8.56886 4.2517 8.46008 4.20801 8.32992 4.20801H4.41667C4.2865 4.20801 4.17772 4.25201 4.09033 4.34001C4.00294 4.42801 3.95894 4.53709 3.95833 4.66726C3.95772 4.79742 4.00172 4.9062 4.09033 4.99359C4.17894 5.08098 4.28772 5.12467 4.41667 5.12467H8.33083ZM8.33083 8.79134C8.46039 8.79134 8.56917 8.74734 8.65717 8.65934C8.74517 8.57134 8.78886 8.46226 8.78825 8.33209C8.78764 8.20192 8.74364 8.09315 8.65625 8.00576C8.56886 7.91837 8.46008 7.87467 8.32992 7.87467H4.41667C4.2865 7.87467 4.17772 7.91867 4.09033 8.00667C4.00294 8.09467 3.95894 8.20376 3.95833 8.33392C3.95772 8.46409 4.00172 8.57287 4.09033 8.66026C4.17894 8.74765 4.28772 8.79134 4.41667 8.79134H8.33083ZM2.23042 12.9163C1.80814 12.9163 1.45583 12.7752 1.1735 12.4928C0.891167 12.2105 0.75 11.8579 0.75 11.435V1.56434C0.75 1.14206 0.891472 0.789758 1.17442 0.507424C1.45736 0.225091 1.80936 0.0836189 2.23042 0.0830078H16.7917C16.9218 0.0830078 17.0306 0.127008 17.118 0.215008C17.2054 0.303008 17.2494 0.412091 17.25 0.542258C17.2506 0.672424 17.2066 0.781202 17.118 0.868591C17.0294 0.95598 16.9206 0.999674 16.7917 0.999674H2.23133C2.09017 0.999674 1.96061 1.05834 1.84267 1.17567C1.72472 1.29301 1.66606 1.42256 1.66667 1.56434V11.4359C1.66667 11.5765 1.72533 11.7057 1.84267 11.8237C1.96 11.9416 2.08925 12.0003 2.23042 11.9997H6.95583C7.086 11.9997 7.19478 12.0437 7.28217 12.1317C7.36956 12.2197 7.41356 12.3288 7.41417 12.4589C7.41478 12.5891 7.37078 12.6979 7.28217 12.7853C7.19356 12.8726 7.08478 12.9163 6.95583 12.9163H2.23042ZM11.3613 14.9605C10.7741 14.9605 10.2745 14.7552 9.86258 14.3445C9.45131 13.9326 9.24567 13.433 9.24567 12.8458C9.24567 12.3324 9.40303 11.886 9.71775 11.5065C10.0319 11.1264 10.4269 10.8859 10.903 10.7851V9.35509C10.903 9.14548 10.9739 8.96978 11.1157 8.82801C11.2574 8.68623 11.4334 8.61534 11.6437 8.61534H15.875V7.36134C15.3989 7.2599 15.0039 7.01942 14.6897 6.63992C14.375 6.26042 14.2177 5.8137 14.2177 5.29976C14.2177 4.71248 14.4236 4.2132 14.8355 3.80192C15.2468 3.39065 15.7461 3.18501 16.3333 3.18501C16.9206 3.18501 17.4202 3.39065 17.8321 3.80192C18.244 4.2132 18.4496 4.71248 18.449 5.29976C18.449 5.81309 18.2916 6.25981 17.9769 6.63992C17.6628 7.01942 17.2677 7.2599 16.7917 7.36134V8.79134C16.7917 9.00095 16.7208 9.17695 16.579 9.31934C16.4372 9.46173 16.2612 9.53262 16.051 9.53201H11.8206V10.7851C12.2966 10.8865 12.6917 11.127 13.0058 11.5065C13.3206 11.8854 13.4779 12.3318 13.4779 12.8458C13.4779 13.4336 13.2723 13.9332 12.861 14.3445C12.4497 14.7558 11.9501 14.9614 11.3622 14.9614" fill="#667085"/>
</svg>
