<svg width="16" height="16" viewBox="0 0 16 16" fill="none" xmlns="http://www.w3.org/2000/svg">
<path fill-rule="evenodd" clip-rule="evenodd" d="M3.86325 8.94025C6.9237 8.94025 7.05983 9.9782 7.05983 12.1368C7.05983 13.2184 7.05983 13.9878 6.60554 14.5512C6.08281 15.2003 5.13136 15.3334 3.86325 15.3334C2.59515 15.3334 1.6437 15.2003 1.12096 14.5512C0.666672 13.9878 0.666672 13.2192 0.666672 12.1556L1.23077 12.1368H0.666672C0.666672 9.9782 0.802809 8.94025 3.86325 8.94025ZM12.1368 8.94025C15.1972 8.94025 15.3333 9.9782 15.3333 12.1368C15.3333 13.2184 15.3333 13.9878 14.879 14.5512C14.3563 15.2003 13.4049 15.3334 12.1368 15.3334C10.8687 15.3334 9.9172 15.2003 9.39447 14.5512C8.94018 13.9878 8.94018 13.2192 8.94018 12.1556L9.50428 12.1368H8.94018C8.94018 9.9782 9.07631 8.94025 12.1368 8.94025ZM4.01831 10.0688L3.86325 10.0685C1.90095 10.0685 1.80032 10.2093 1.79516 11.8563L1.79547 12.498C1.79904 13.1531 1.824 13.6263 1.99871 13.8442C2.19802 14.0909 2.78995 14.2052 3.86325 14.2052C4.93655 14.2052 5.52848 14.0901 5.7278 13.8434C5.93163 13.59 5.93163 12.9883 5.93163 12.1549C5.93163 10.2744 5.93163 10.0776 4.01831 10.0688ZM12.2918 10.0688L12.1368 10.0685C10.1745 10.0685 10.0738 10.2093 10.0687 11.8563L10.069 12.498C10.0725 13.1531 10.0975 13.6263 10.2722 13.8442C10.4715 14.0909 11.0635 14.2052 12.1368 14.2052C13.2101 14.2052 13.802 14.0901 14.0013 13.8434C14.2051 13.59 14.2051 12.9883 14.2051 12.1549C14.2051 10.2744 14.2051 10.0776 12.2918 10.0688ZM3.86325 0.666748C6.9237 0.666748 7.05983 1.7047 7.05983 3.86333C7.05983 4.9449 7.05983 5.71434 6.60554 6.27769C6.08281 6.92678 5.13136 7.05991 3.86325 7.05991C2.59515 7.05991 1.6437 6.92678 1.12096 6.27769C0.666672 5.71434 0.666672 4.94565 0.666672 3.88213L1.23077 3.86333H0.666672C0.666672 1.7047 0.802809 0.666748 3.86325 0.666748ZM12.1368 0.666748C15.1972 0.666748 15.3333 1.7047 15.3333 3.86333C15.3333 4.9449 15.3333 5.71434 14.879 6.27769C14.3563 6.92678 13.4049 7.05991 12.1368 7.05991C10.8687 7.05991 9.9172 6.92678 9.39447 6.27769C8.94018 5.71434 8.94018 4.94565 8.94018 3.88213L9.50428 3.86333H8.94018C8.94018 1.7047 9.07631 0.666748 12.1368 0.666748ZM4.01831 1.79529L3.86325 1.79495C1.90095 1.79495 1.80032 1.93576 1.79516 3.58282L1.79547 4.22449C1.79904 4.87957 1.824 5.35277 1.99871 5.57068C2.19802 5.81738 2.78995 5.9317 3.86325 5.9317C4.93655 5.9317 5.52848 5.81663 5.7278 5.56993C5.93163 5.31646 5.93163 4.71475 5.93163 3.88138C5.93163 2.00088 5.93163 1.80414 4.01831 1.79529ZM12.2918 1.79529L12.1368 1.79495C10.1745 1.79495 10.0738 1.93576 10.0687 3.58282L10.069 4.22449C10.0725 4.87957 10.0975 5.35277 10.2722 5.57068C10.4715 5.81738 11.0635 5.9317 12.1368 5.9317C13.2101 5.9317 13.802 5.81663 14.0013 5.56993C14.2051 5.31646 14.2051 4.71475 14.2051 3.88138C14.2051 2.00088 14.2051 1.80414 12.2918 1.79529Z" fill="#667085"/>
</svg>
