<svg width="14" height="14" viewBox="0 0 14 14" fill="none" xmlns="http://www.w3.org/2000/svg">
<path fill-rule="evenodd" clip-rule="evenodd" d="M9.90604 0.333252C12.1553 0.333252 13.6667 1.91217 13.6667 4.26193V9.7379C13.6667 12.0877 12.1553 13.6666 9.90604 13.6666H4.09395C1.84465 13.6666 0.333328 12.0877 0.333328 9.7379V4.26193C0.333328 1.91217 1.84465 0.333252 4.09395 0.333252H9.90604ZM9.90604 1.26348H4.09395C2.37488 1.26348 1.26356 2.43992 1.26356 4.26193V9.7379C1.26356 11.5599 2.37488 12.7364 4.09395 12.7364H9.90604C11.6257 12.7364 12.7364 11.5599 12.7364 9.7379V4.26193C12.7364 2.43992 11.6257 1.26348 9.90604 1.26348ZM4.12936 5.42007C4.3861 5.42007 4.59448 5.62845 4.59448 5.88519V10.1395C4.59448 10.3962 4.3861 10.6046 4.12936 10.6046C3.87262 10.6046 3.66424 10.3962 3.66424 10.1395V5.88519C3.66424 5.62845 3.87262 5.42007 4.12936 5.42007ZM7.02362 3.38348C7.28037 3.38348 7.48874 3.59186 7.48874 3.8486V10.1388C7.48874 10.3956 7.28037 10.604 7.02362 10.604C6.76688 10.604 6.55851 10.3956 6.55851 10.1388V3.8486C6.55851 3.59186 6.76688 3.38348 7.02362 3.38348ZM9.87032 7.66814C10.1271 7.66814 10.3354 7.87651 10.3354 8.13325V10.1388C10.3354 10.3956 10.1271 10.604 9.87032 10.604C9.61358 10.604 9.4052 10.3956 9.4052 10.1388V8.13325C9.4052 7.87651 9.61358 7.66814 9.87032 7.66814Z" fill="#667085"/>
</svg>
