<svg width="40" height="40" viewBox="0 0 40 40" fill="none" xmlns="http://www.w3.org/2000/svg">
<path d="M20 24.9997V3.33301M20 3.33301L25 9.16634M20 3.33301L15 9.16634" stroke="#D0D5DD" stroke-width="1.5" stroke-linecap="round" stroke-linejoin="round"/>
<path d="M13.333 36.6663H26.6663C31.3797 36.6663 33.738 36.6663 35.2013 35.2029C36.6663 33.7363 36.6663 31.3813 36.6663 26.6663V24.9996C36.6663 20.2863 36.6663 17.9296 35.2013 16.4646C33.9213 15.1846 31.958 15.0229 28.333 15.0029M11.6663 15.0029C8.04134 15.0229 6.07801 15.1846 4.79801 16.4646C3.33301 17.9296 3.33301 20.2863 3.33301 24.9996V26.6663C3.33301 31.3813 3.33301 33.7379 4.79801 35.2029C5.29801 35.7029 5.90134 36.0313 6.66634 36.2479" stroke="#D0D5DD" stroke-width="1.5" stroke-linecap="round"/>
</svg>
