<svg width="16" height="16" viewBox="0 0 16 16" fill="none" xmlns="http://www.w3.org/2000/svg">
<path fill-rule="evenodd" clip-rule="evenodd" d="M10.8087 0.666626C13.1164 0.666626 14.6667 2.25263 14.6667 4.61285V11.3871C14.6667 13.7679 13.1641 15.3163 10.8388 15.3311L5.19203 15.3333C2.8843 15.3333 1.33333 13.7473 1.33333 11.3871V4.61285C1.33333 2.23127 2.83585 0.683569 5.1612 0.669573L10.808 0.666626H10.8087ZM10.8087 1.7716L5.16487 1.77454C3.45609 1.78486 2.43435 2.84563 2.43435 4.61285V11.3871C2.43435 13.1661 3.46563 14.2283 5.1913 14.2283L10.8351 14.2261C12.5439 14.2158 13.5656 13.1536 13.5656 11.3871V4.61285C13.5656 2.83384 12.5351 1.7716 10.8087 1.7716ZM10.6671 10.592C10.971 10.592 11.2176 10.8395 11.2176 11.1445C11.2176 11.4495 10.971 11.697 10.6671 11.697H5.36753C5.06365 11.697 4.81702 11.4495 4.81702 11.1445C4.81702 10.8395 5.06365 10.592 5.36753 10.592H10.6671ZM10.6671 7.50803C10.971 7.50803 11.2176 7.75554 11.2176 8.06051C11.2176 8.36548 10.971 8.613 10.6671 8.613H5.36753C5.06365 8.613 4.81702 8.36548 4.81702 8.06051C4.81702 7.75554 5.06365 7.50803 5.36753 7.50803H10.6671ZM7.38952 4.43119C7.6934 4.43119 7.94003 4.67871 7.94003 4.98368C7.94003 5.28865 7.6934 5.53617 7.38952 5.53617H5.36731C5.06343 5.53617 4.8168 5.28865 4.8168 4.98368C4.8168 4.67871 5.06343 4.43119 5.36731 4.43119H7.38952Z" fill="#667085"/>
</svg>
